<svg width="24" height="24" viewBox="0 0 24 24" fill="none" xmlns="http://www.w3.org/2000/svg">
<path fill-rule="evenodd" clip-rule="evenodd" d="M3.013 9.151C3 9.691 3 10.302 3 11V13C3 15.828 3 17.243 3.879 18.121C4.757 19 6.172 19 9 19H15C17.828 19 19.243 19 20.121 18.121C21 17.243 21 15.828 21 13V11C21 10.302 21 9.69 20.987 9.151L12.971 13.604C12.674 13.769 12.3398 13.8555 12 13.8555C11.6602 13.8555 11.326 13.769 11.029 13.604L3.013 9.151ZM3.243 7.03C3.328 7.05078 3.40975 7.08308 3.486 7.126L12 11.856L20.514 7.126C20.5905 7.08351 20.6721 7.05124 20.757 7.03C20.627 6.556 20.427 6.185 20.121 5.879C19.243 5 17.828 5 15 5H9C6.172 5 4.757 5 3.879 5.879C3.572 6.185 3.373 6.556 3.243 7.029" fill="#0E7490"/>
</svg>
