<svg width="50" height="57" viewBox="0 0 50 57" fill="none" xmlns="http://www.w3.org/2000/svg">
<path d="M49.9639 40.2778C49.9759 39.9812 49.9393 39.6847 49.8556 39.4L44.3 22.7333C44.1166 22.18 43.7634 21.6985 43.2906 21.3574C42.8179 21.0163 42.2496 20.8329 41.6667 20.8333H30.5556V26.3889H39.6639L44.2944 40.2778H5.70556L10.3361 26.3889H19.4444V20.8333H8.33333C7.75037 20.8329 7.18212 21.0163 6.70936 21.3574C6.23661 21.6985 5.88342 22.18 5.7 22.7333L0.144445 39.4C0.0607261 39.6847 0.024132 39.9812 0.0361111 40.2778C3.10441e-08 40.2778 0 54.1667 0 54.1667C0 54.9034 0.292658 55.6099 0.813592 56.1309C1.33453 56.6518 2.04107 56.9444 2.77778 56.9444H47.2222C47.9589 56.9444 48.6655 56.6518 49.1864 56.1309C49.7073 55.6099 50 54.9034 50 54.1667C50 54.1667 50 40.2778 49.9639 40.2778ZM36.1111 17.7889C36.8306 17.7889 37.55 17.525 38.075 17.0028C38.5958 16.4819 38.8883 15.7755 38.8883 15.0389C38.8883 14.3023 38.5958 13.5959 38.075 13.075L25 0L11.925 13.075C11.4042 13.5959 11.1117 14.3023 11.1117 15.0389C11.1117 15.7755 11.4042 16.4819 11.925 17.0028C12.45 17.5278 13.1694 17.7889 13.8889 17.7889C14.6083 17.7889 15.3278 17.5278 15.8528 17.0028L22.2222 10.6333V29.1667C22.2222 29.9034 22.5149 30.6099 23.0358 31.1309C23.5567 31.6518 24.2633 31.9444 25 31.9444C25.7367 31.9444 26.4433 31.6518 26.9642 31.1309C27.4851 30.6099 27.7778 29.9034 27.7778 29.1667V10.6333L34.1472 17.0028C34.672 17.5144 35.3783 17.797 36.1111 17.7889Z" fill="#0E7490"/>
</svg>
