<svg width="16" height="16" viewBox="0 0 16 16" fill="none" xmlns="http://www.w3.org/2000/svg">
<path d="M8.00003 9.85535C9.29916 9.85535 10.3248 8.89315 10.4616 7.65601C10.53 6.83128 10.5983 6.14401 10.5983 5.59417C10.5983 5.04435 10.5983 4.35706 10.4616 3.53232C10.3248 2.29521 9.29916 1.33301 8.00003 1.33301C7.38463 1.33301 6.76923 1.53919 6.359 1.95157C5.94875 2.36393 5.60687 2.84503 5.53849 3.46359C5.47011 4.28833 5.40173 4.97562 5.40173 5.52545C5.40173 6.07527 5.40173 6.76255 5.53849 7.58728C5.67524 8.89315 6.70089 9.85535 8.00003 9.85535Z" fill="#030D45"/>
<path d="M12.7863 5.31934C12.5128 5.31934 12.2393 5.52552 12.2393 5.86917C12.2393 6.419 12.1709 7.10626 12.1025 7.93099C11.8974 9.99286 10.1196 11.5737 7.93156 11.5737C5.74355 11.5737 4.03415 9.99286 3.82902 7.93099C3.76065 7.10626 3.69227 6.419 3.69227 5.86917C3.69227 5.59425 3.48714 5.31934 3.14526 5.31934C2.80338 5.31934 2.66663 5.59425 2.66663 5.86917C2.66663 6.48772 2.735 7.17499 2.80338 7.99972C3.00851 10.4053 4.99141 12.3297 7.45296 12.5359V14.1166C7.45296 14.3915 7.65809 14.6664 7.99996 14.6664C8.34183 14.6664 8.54696 14.4603 8.54696 14.1166V12.5359C11.0085 12.3297 12.9914 10.4053 13.1966 7.99972C13.2649 7.17499 13.3333 6.419 13.3333 5.86917C13.3333 5.59425 13.0598 5.31934 12.7863 5.31934Z" fill="#030D45"/>
</svg>
