<svg width="25" height="30" viewBox="0 0 25 30" fill="none" xmlns="http://www.w3.org/2000/svg">
<path d="M0 0H9.19337C12.9402 0 15.7326 0.516178 17.5699 1.54853C19.4067 2.58089 21.0527 4.21477 22.508 6.44914C23.9627 8.68402 24.6903 11.5081 24.6903 14.9219C24.6903 19.2158 23.4186 22.8023 20.8764 25.6814C18.3336 28.5605 14.8286 30 10.3608 30H0V0ZM6.92236 5.51549V24.3508H9.8328C12.4039 24.3508 14.314 23.3956 15.5629 21.4841C16.8129 19.5716 17.4379 17.3259 17.4379 14.7471C17.4379 12.9307 17.0811 11.25 16.3674 9.70456C15.6547 8.15808 14.7693 7.0738 13.7106 6.4512C12.653 5.82757 11.3824 5.51549 9.8988 5.51549H6.92236Z" fill="#0E7490"/>
</svg>
