<svg width="18" height="15" viewBox="0 0 18 15" fill="none" xmlns="http://www.w3.org/2000/svg">
<path d="M0.818184 1.03909L1.86546 0L15.5455 13.68L14.5064 14.7273L11.9864 12.2073C11.0455 12.5182 10.0473 12.6818 9.00002 12.6818C4.9091 12.6818 1.41546 10.1373 0 6.54547C0.564547 5.10547 1.46455 3.83728 2.61001 2.83092L0.818184 1.03909ZM9.00002 4.09092C9.65101 4.09092 10.2753 4.34952 10.7357 4.80984C11.196 5.27016 11.4546 5.89448 11.4546 6.54547C11.455 6.82412 11.4079 7.1008 11.3155 7.36365L8.18184 4.23001C8.44469 4.13754 8.72137 4.09051 9.00002 4.09092ZM9.00002 0.409092C13.0909 0.409092 16.5846 2.95364 18 6.54547C17.3323 8.24173 16.1975 9.71406 14.7273 10.7918L13.5655 9.62184C14.6969 8.83915 15.6095 7.78015 16.2164 6.54547C15.5549 5.19542 14.528 4.058 13.2523 3.26251C11.9767 2.46702 10.5034 2.04536 9.00002 2.04546C8.1082 2.04546 7.23274 2.19273 6.41456 2.45455L5.15456 1.20273C6.33274 0.695456 7.63365 0.409092 9.00002 0.409092ZM1.78364 6.54547C2.44509 7.89552 3.47202 9.03294 4.7477 9.82843C6.02338 10.6239 7.49664 11.0456 9.00002 11.0455C9.56457 11.0455 10.1209 10.9882 10.6364 10.8737L8.77093 9.00002C8.20161 8.939 7.67033 8.68492 7.26545 8.28004C6.86057 7.87516 6.60649 7.34388 6.54547 6.77456L3.76364 3.98455C2.95364 4.68001 2.27455 5.54729 1.78364 6.54547Z" fill="#0E7490"/>
</svg>
