<svg width="124" height="36" viewBox="0 0 124 36" fill="none" xmlns="http://www.w3.org/2000/svg">
<path d="M1.12907 34.8743H33.5084L29.8325 31.2094H4.66064V4.64563L29.8826 4.69412L33.4983 1.12568H1.12907V34.8743ZM36.2341 36H0V0H36.2442L30.3461 5.8208L5.78971 5.77333V30.0837H30.3L36.2341 36Z" fill="#0E7490"/>
<path d="M12.3965 23.8322H23.9764V12.2871H12.3965V23.8322ZM25.1055 24.9579H11.2674V11.1614H25.1055V24.9579Z" fill="#0E7490"/>
<path d="M67.6794 3.01587V8.84374H60.3609V32.4845H53.3444V8.84374H45.9814V3.01587H67.6794Z" fill="#0E7490"/>
<path d="M77.5978 20.8045V32.4845H70.6238V3.01587H83.6175C86.0134 3.01587 87.9373 3.29262 89.388 3.84611C90.8387 4.39961 92.0402 5.41772 92.9925 6.90045C93.9458 8.38317 94.4229 10.0315 94.4229 11.8456C94.4229 15.3862 92.7119 17.9259 89.2907 19.4652L94.7471 32.4845H87.1025L82.5558 20.8045H77.5978ZM77.5978 8.26197V15.7746H81.8406C83.2265 15.7746 84.2335 15.6776 84.8616 15.4837C85.4897 15.2887 86.0489 14.8565 86.5392 14.1868C87.0306 13.5177 87.2767 12.7515 87.2767 11.888C87.2767 11.0678 87.0306 10.334 86.5392 9.68611C86.0489 9.03868 85.5145 8.63921 84.9365 8.48821C84.3596 8.33772 83.2776 8.26197 81.6906 8.26197H77.5978Z" fill="#0E7490"/>
<path d="M99.747 3.01587H108.778C112.458 3.01587 115.201 3.5229 117.006 4.53697C118.81 5.55104 120.427 7.15598 121.856 9.35078C123.285 11.5461 124 14.3201 124 17.6734C124 21.8913 122.751 25.4143 120.254 28.2424C117.756 31.0705 114.313 32.4845 109.924 32.4845H99.747V3.01587ZM106.547 8.43367V26.9354H109.406C111.931 26.9354 113.807 25.9971 115.034 24.1194C116.262 22.2408 116.876 20.0349 116.876 17.5017C116.876 15.7175 116.526 14.0666 115.824 12.5485C115.124 11.0294 114.255 9.96437 113.215 9.3528C112.176 8.74022 110.928 8.43367 109.47 8.43367H106.547Z" fill="#0E7490"/>
</svg>
