<svg width="24" height="24" viewBox="0 0 24 24" fill="none" xmlns="http://www.w3.org/2000/svg">
<path d="M12 21C13.9969 20.9997 15.937 20.3353 17.5149 19.1114C19.0927 17.8874 20.2187 16.1735 20.7156 14.2394C21.2125 12.3053 21.052 10.2608 20.2594 8.42795C19.4669 6.59506 18.0872 5.0778 16.3377 4.11506C14.5882 3.15231 12.5682 2.79875 10.5957 3.11004C8.6232 3.42132 6.81024 4.37978 5.44225 5.83452C4.07425 7.28925 3.22892 9.15764 3.03932 11.1455C2.84973 13.1334 3.32665 15.1279 4.395 16.815L3 21L7.185 19.605C8.62453 20.5188 10.2949 21.0027 12 21Z" fill="#0E7490"/>
</svg>
