<svg width="33" height="26" viewBox="0 0 33 26" fill="none" xmlns="http://www.w3.org/2000/svg">
<path d="M7.50002 26V12.6095L3.54582 8.8103L0 6.70202V23.6369C0 24.9444 1.00869 26 2.25006 26H7.50002Z" fill="#4285F4"/>
<path d="M25.5 25.9998H30.7499C31.995 25.9998 33 24.9404 33 23.6368V6.70202L28.9838 9.1168L25.5 12.6093V25.9998Z" fill="#34A853"/>
<path d="M7.50008 12.6095L6.96203 7.37746L7.50008 2.36987L16.5001 9.45894L25.5 2.36987L26.1019 7.10711L25.5 12.6095L16.5001 19.6986L7.50008 12.6095Z" fill="#EA4335"/>
<path d="M25.5 2.36966V12.6093L33 6.70184V3.55113C33 0.628936 29.8238 -1.03692 27.6001 0.71558L25.5 2.36966Z" fill="#FBBC04"/>
<path d="M0 6.7019L3.4494 9.41899L7.50002 12.6094V2.36972L5.39988 0.715642C3.17238 -1.03699 0 0.628998 0 3.55105V6.70176V6.7019Z" fill="#C5221F"/>
</svg>
