<svg width="27" height="27" viewBox="0 0 27 27" fill="none" xmlns="http://www.w3.org/2000/svg">
<path d="M10.125 3.375H4.5C3.87868 3.375 3.375 3.87868 3.375 4.5V10.125C3.375 10.7463 3.87868 11.25 4.5 11.25H10.125C10.7463 11.25 11.25 10.7463 11.25 10.125V4.5C11.25 3.87868 10.7463 3.375 10.125 3.375Z" fill="#EBF4FF" stroke="#0E7490" stroke-width="3" stroke-linejoin="round"/>
<path d="M10.125 15.75H4.5C3.87868 15.75 3.375 16.2537 3.375 16.875V22.5C3.375 23.1213 3.87868 23.625 4.5 23.625H10.125C10.7463 23.625 11.25 23.1213 11.25 22.5V16.875C11.25 16.2537 10.7463 15.75 10.125 15.75Z" fill="#EBF4FF" stroke="#0E7490" stroke-width="3" stroke-linejoin="round"/>
<path d="M22.5 3.375H16.875C16.2537 3.375 15.75 3.87868 15.75 4.5V10.125C15.75 10.7463 16.2537 11.25 16.875 11.25H22.5C23.1213 11.25 23.625 10.7463 23.625 10.125V4.5C23.625 3.87868 23.1213 3.375 22.5 3.375Z" fill="#EBF4FF" stroke="#0E7490" stroke-width="3" stroke-linejoin="round"/>
<path d="M22.5 15.75H16.875C16.2537 15.75 15.75 16.2537 15.75 16.875V22.5C15.75 23.1213 16.2537 23.625 16.875 23.625H22.5C23.1213 23.625 23.625 23.1213 23.625 22.5V16.875C23.625 16.2537 23.1213 15.75 22.5 15.75Z" fill="#EBF4FF" stroke="#0E7490" stroke-width="3" stroke-linejoin="round"/>
</svg>
