<svg width="20" height="20" viewBox="0 0 20 20" fill="none" xmlns="http://www.w3.org/2000/svg">
<path d="M9.33341 3.33325H5.66675C4.83832 3.33325 4.16675 4.00482 4.16675 4.83325V8.49992C4.16675 9.32835 4.83832 9.99992 5.66675 9.99992H9.33341C10.1618 9.99992 10.8334 9.32835 10.8334 8.49992V4.83325C10.8334 4.00482 10.1618 3.33325 9.33341 3.33325Z" stroke="#0E7490" stroke-width="2"/>
<path d="M10 11.5C10 11.1022 9.84201 10.7206 9.5607 10.4393C9.2794 10.158 8.89787 10 8.50004 10H4.83337C4.43555 10 4.05402 10.158 3.77271 10.4393C3.49141 10.7206 3.33337 11.1022 3.33337 11.5V15.1667C3.33337 15.5645 3.49141 15.946 3.77271 16.2273C4.05402 16.5086 4.43555 16.6667 4.83337 16.6667H10M10 11.5V16.6667M10 11.5C10 11.1022 10.1581 10.7206 10.4394 10.4393C10.7207 10.158 11.1022 10 11.5 10H15.1667C15.3637 10 15.5587 10.0388 15.7407 10.1142C15.9227 10.1896 16.0881 10.3001 16.2274 10.4393C16.3667 10.5786 16.4771 10.744 16.5525 10.926C16.6279 11.108 16.6667 11.303 16.6667 11.5V15.1667C16.6667 15.3636 16.6279 15.5587 16.5525 15.7407C16.4771 15.9227 16.3667 16.088 16.2274 16.2273C16.0881 16.3666 15.9227 16.4771 15.7407 16.5525C15.5587 16.6279 15.3637 16.6667 15.1667 16.6667H10" stroke="#0E7490" stroke-width="2"/>
<path d="M13.3334 9.99992V12.4999M6.66675 9.99992V12.4999M7.50008 3.33325V5.83325" stroke="#0E7490" stroke-width="2" stroke-linecap="round"/>
</svg>
