<svg width="24" height="24" viewBox="0 0 24 24" fill="none" xmlns="http://www.w3.org/2000/svg">
<path fill-rule="evenodd" clip-rule="evenodd" d="M8.29455 5.32435C8.46362 3.40732 10.0991 2 12 2C13.9009 2 15.5364 3.40732 15.7054 5.32435C15.794 6.3283 15.871 7.46841 15.871 8.41026C15.871 9.3521 15.794 10.4922 15.7054 11.4962C15.5364 13.4132 13.9009 14.8205 12 14.8205C10.0991 14.8205 8.46362 13.4132 8.29455 11.4962C8.20602 10.4922 8.12903 9.3521 8.12903 8.41026C8.12903 7.46841 8.20602 6.3283 8.29455 5.32435ZM12 3.53846C10.8657 3.53846 9.93291 4.37146 9.83703 5.45864C9.74967 6.44919 9.67742 7.53634 9.67742 8.41026C9.67742 9.28417 9.74967 10.3713 9.83703 11.3619C9.93291 12.4491 10.8657 13.2821 12 13.2821C13.1343 13.2821 14.0671 12.4491 14.163 11.3619C14.2503 10.3713 14.3226 9.28417 14.3226 8.41026C14.3226 7.53634 14.2503 6.44919 14.163 5.45865C14.0671 4.37146 13.1343 3.53846 12 3.53846Z" fill="white"/>
<path fill-rule="evenodd" clip-rule="evenodd" d="M4.77419 8.1543C5.20177 8.1543 5.54839 8.49869 5.54839 8.92353C5.54839 9.84286 5.61777 10.9082 5.7222 11.9872C6.02346 15.1 8.76916 17.385 12 17.385C15.2308 17.385 17.9765 15.1 18.2778 11.9872C18.3822 10.9082 18.4516 9.84286 18.4516 8.92353C18.4516 8.49869 18.7982 8.1543 19.2258 8.1543C19.6534 8.1543 20 8.49869 20 8.92353C20 9.91126 19.9259 11.0303 19.8191 12.1344C19.459 15.8546 16.3909 18.5479 12.7742 18.8873V21.2312C12.7742 21.656 12.4276 22.0004 12 22.0004C11.5724 22.0004 11.2258 21.656 11.2258 21.2312V18.8873C7.60911 18.5479 4.54095 15.8546 4.18092 12.1344C4.07407 11.0303 4 9.91126 4 8.92353C4 8.49869 4.34662 8.1543 4.77419 8.1543Z" fill="white"/>
</svg>
