<svg width="92" height="83" viewBox="0 0 92 83" fill="none" xmlns="http://www.w3.org/2000/svg">
<path fill-rule="evenodd" clip-rule="evenodd" d="M23 35.479V76.7986C23 80.1112 20.3692 82.7263 17.229 82.7263H5.6865C2.54628 82.7263 0 80.1112 0 76.7986V35.479C0 32.1665 2.54628 29.5513 5.6865 29.5513H17.229C20.3692 29.5513 23 32.1665 23 35.479ZM20.1145 35.479C20.1145 33.8228 18.8415 32.5152 17.229 32.5152H5.6865C4.15882 32.5152 2.80098 33.8228 2.80098 35.479V76.7986C2.80098 78.4549 4.15882 79.7625 5.6865 79.7625H17.229C18.8415 79.7625 20.1145 78.4549 20.1145 76.7986V35.479ZM85.3799 45.8525C86.1437 47.2473 86.568 48.9035 86.568 50.4726C86.568 54.5697 84.0221 58.231 80.4576 59.7129C80.797 60.7589 81.0514 61.9793 81.0514 63.1126C81.0514 66.9482 78.8448 70.3479 75.5348 72.0041C75.5348 72.2947 75.5348 72.5853 75.5348 72.8759C75.5348 78.3677 71.2065 82.8135 65.8597 82.8135H55.8451C49.5647 82.8135 43.454 80.7213 38.4466 76.8858L29.3653 70.6966C28.941 70.4351 28.7715 69.9992 28.7715 69.4761C28.7715 68.6916 29.3653 67.9942 30.214 67.9942C30.4403 67.9942 30.6949 68.0814 30.9778 68.2557L40.144 74.445C44.6422 77.9318 50.2436 79.8496 55.8451 79.8496H65.8597C69.594 79.8496 72.6493 76.7114 72.6493 72.8759C72.6493 71.917 72.4798 71.4811 72.4798 71.0453C72.4798 70.4351 72.819 69.8248 73.498 69.6505C76.2987 68.6916 78.1659 66.0764 78.1659 63.1126C78.1659 60.4974 76.9778 59.7129 76.9778 58.754C76.9778 57.8823 77.6567 57.3592 78.1659 57.272C81.3061 56.6618 83.6825 53.7852 83.6825 50.4726C83.6825 46.8986 81.4758 46.2012 81.4758 44.8064C81.4758 44.1091 82.0699 43.4117 82.8338 43.4117C86.3983 43.1502 89.1991 40.0992 89.1991 36.5251C89.1991 32.6895 86.1436 29.5513 82.3245 29.5513H56.5239C55.7601 29.5513 55.0813 28.9411 55.0813 28.0694C55.0813 27.7788 55.166 27.5173 55.3358 27.2849L56.3544 25.8029C60.1736 19.1779 61.786 12.2041 61.786 10.0248C61.786 6.53791 59.1548 2.96385 54.7415 2.96385C45.4906 2.96385 51.3469 15.9525 37.0886 27.6335L31.0627 32.2537C30.7798 32.428 30.4969 32.5152 30.214 32.5152C29.7048 32.5152 28.7715 32.1665 28.7715 31.0333C28.7715 30.5974 28.9409 30.1615 29.2804 29.9L35.3062 25.2799C48.8855 14.1219 42.605 0 54.7415 0C61.022 0 64.6716 5.05598 64.6716 10.0248C64.6716 12.8143 62.9741 19.8752 59.155 26.5875H82.3245C87.6713 26.5875 92 31.0333 92 36.5251C92 40.7965 89.2839 44.5449 85.3799 45.8525Z" fill="#2ED573"/>
</svg>
