<svg width="20" height="20" viewBox="0 0 20 20" fill="none" xmlns="http://www.w3.org/2000/svg">
<path d="M18.3333 9.99996C18.3329 7.78996 17.4548 5.6706 15.8921 4.10789C14.3294 2.54518 12.21 1.66707 10 1.66663V3.33329C11.3184 3.33359 12.6072 3.72466 13.7034 4.45707C14.7997 5.18949 15.6542 6.2304 16.1592 7.44829C16.4943 8.25727 16.6667 9.12433 16.6667 9.99996H18.3333ZM1.66667 8.33329V4.16663C1.66667 3.94561 1.75447 3.73365 1.91075 3.57737C2.06703 3.42109 2.27899 3.33329 2.5 3.33329H6.66667C6.88768 3.33329 7.09964 3.42109 7.25592 3.57737C7.4122 3.73365 7.5 3.94561 7.5 4.16663V7.49996C7.5 7.72097 7.4122 7.93293 7.25592 8.08921C7.09964 8.24549 6.88768 8.33329 6.66667 8.33329H5C5 10.1014 5.70238 11.7971 6.95262 13.0473C8.20286 14.2976 9.89856 15 11.6667 15V13.3333C11.6667 13.1123 11.7545 12.9003 11.9107 12.744C12.067 12.5878 12.279 12.5 12.5 12.5H15.8333C16.0543 12.5 16.2663 12.5878 16.4226 12.744C16.5789 12.9003 16.6667 13.1123 16.6667 13.3333V17.5C16.6667 17.721 16.5789 17.9329 16.4226 18.0892C16.2663 18.2455 16.0543 18.3333 15.8333 18.3333H11.6667C6.14417 18.3333 1.66667 13.8558 1.66667 8.33329Z" fill="#0E7490"/>
<path d="M14.6192 8.08667C14.8707 8.69319 15.0001 9.34338 15 10H13.5C13.5001 9.54034 13.4097 9.08517 13.2338 8.66048C13.0579 8.23579 12.8001 7.84991 12.4751 7.52488C12.1501 7.19986 11.7642 6.94205 11.3395 6.7662C10.9148 6.59035 10.4597 6.49989 10 6.5V5C10.9889 5.00005 11.9555 5.29333 12.7777 5.84275C13.5999 6.39217 14.2408 7.17306 14.6192 8.08667Z" fill="#0E7490"/>
</svg>
