<svg width="20" height="20" viewBox="0 0 20 20" fill="none" xmlns="http://www.w3.org/2000/svg">
<path d="M9.29651 16.1371L9.29543 16.1361C7.13485 14.1769 5.40196 12.6016 4.20045 11.1316C3.00718 9.67172 2.41663 8.4076 2.41663 7.08333C2.41663 4.92344 4.09661 3.25 6.24996 3.25C7.47323 3.25 8.65972 3.82334 9.43083 4.7218L9.99996 5.38491L10.5691 4.7218C11.3402 3.82334 12.5267 3.25 13.75 3.25C15.9033 3.25 17.5833 4.92344 17.5833 7.08333C17.5833 8.4076 16.9927 9.67172 15.7995 11.1316C14.598 12.6016 12.8651 14.1769 10.7045 16.1361L10.7034 16.1371L9.99996 16.7774L9.29651 16.1371Z" stroke="black" stroke-width="1.5"/>
</svg>
