<svg width="27" height="27" viewBox="0 0 27 27" fill="none" xmlns="http://www.w3.org/2000/svg">
<g clip-path="url(#clip0_365_1382)">
<path d="M25.2 15.3H22.5C22.23 15.3 22.05 15.1201 22.05 14.8501C22.05 14.5801 22.23 14.4001 22.5 14.4001H25.2C25.47 14.4001 25.65 14.5801 25.65 14.8501C25.65 15.1201 25.47 15.3 25.2 15.3Z" fill="#FFDD09"/>
<path d="M25.65 13.95H22.05C21.78 13.95 21.6 13.77 21.6 13.5C21.6 13.23 21.78 13.05 22.05 13.05H25.65C25.92 13.05 26.0999 13.23 26.0999 13.5C26.0999 13.77 25.92 13.95 25.65 13.95Z" fill="#FFDD09"/>
<path d="M26.1001 12.6H21.6001C21.3301 12.6 21.1501 12.42 21.1501 12.15C21.1501 11.8801 21.3301 11.7001 21.6001 11.7001H26.1001C26.3701 11.7001 26.5501 11.8801 26.5501 12.15C26.5501 12.42 26.3701 12.6 26.1001 12.6Z" fill="#FFDD09"/>
<path d="M26.55 11.25H21.15C20.8801 11.25 20.7001 11.07 20.7001 10.8C20.7001 10.53 20.8801 10.35 21.15 10.35H26.55C26.82 10.35 27 10.53 27 10.8C27 11.07 26.82 11.25 26.55 11.25Z" fill="#FFDD09"/>
<path d="M26.55 9.90001H21.15C20.8801 9.90001 20.7001 9.72003 20.7001 9.45004C20.7001 9.18004 20.8801 9.00006 21.15 9.00006H26.55C26.82 9.00006 27 9.18004 27 9.45004C27 9.72003 26.82 9.90001 26.55 9.90001Z" fill="#FFDD09"/>
<path d="M26.55 8.54998H21.15C20.8801 8.54998 20.7001 8.37 20.7001 8.1C20.7001 7.83 20.8801 7.65002 21.15 7.65002H26.55C26.82 7.65002 27 7.83 27 8.1C27 8.37 26.82 8.54998 26.55 8.54998Z" fill="#FFDD09"/>
<path d="M26.55 7.2H21.15C20.8801 7.2 20.7001 7.02002 20.7001 6.75002C20.7001 6.48003 20.8801 6.30005 21.15 6.30005H26.55C26.82 6.30005 27 6.48003 27 6.75002C27.0001 7.02002 26.82 7.2 26.55 7.2Z" fill="#FFDD09"/>
<path d="M26.1001 5.85002H21.6001C21.3301 5.85002 21.1501 5.67005 21.1501 5.40005C21.1501 5.13005 21.3301 4.95007 21.6001 4.95007H26.1001C26.3701 4.95007 26.5501 5.13005 26.5501 5.40005C26.5501 5.67005 26.3701 5.85002 26.1001 5.85002Z" fill="#FFDD09"/>
<path d="M25.65 4.49999H22.05C21.78 4.49999 21.6 4.32001 21.6 4.05001C21.6 3.78002 21.78 3.60004 22.05 3.60004H25.65C25.92 3.60004 26.0999 3.78002 26.0999 4.05001C26.1 4.32001 25.92 4.49999 25.65 4.49999Z" fill="#FFDD09"/>
<path d="M25.2 3.15001H22.5C22.23 3.15001 22.05 2.97003 22.05 2.70004C22.05 2.43004 22.23 2.25006 22.5 2.25006H25.2C25.47 2.25006 25.65 2.43004 25.65 2.70004C25.65 2.97003 25.47 3.15001 25.2 3.15001Z" fill="#FFDD09"/>
<path d="M24.75 1.80004H22.95C22.68 1.80004 22.5 1.62006 22.5 1.35006C22.5 1.08007 22.68 0.900085 22.95 0.900085H24.75C25.02 0.900085 25.2 1.08007 25.2 1.35006C25.2 1.62006 25.02 1.80004 24.75 1.80004Z" fill="#FFDD09"/>
<path d="M16.515 6.075C16.9649 6.52498 16.605 7.65 15.705 8.55C14.805 9.45001 13.68 9.855 13.23 9.35999C12.78 8.86498 13.14 7.785 14.04 6.88499C14.94 5.98498 16.065 5.58004 16.515 6.075Z" fill="#DB4D6C"/>
<path d="M14.3099 6.29999C13.4099 7.2 13.635 9.00001 13.1849 8.54998C13.1399 8.505 13.0949 9.22497 13.0499 9.13495V15.2999H15.2999V5.625C15.165 6.07498 14.85 5.80498 14.3099 6.29999Z" fill="#DB4D6C"/>
<path d="M14.85 5.84999C14.67 6.02997 14.49 6.38998 14.355 6.74999C14.85 6.25498 15.21 6.52498 15.3 6.075V15.3H16.6499V5.84999C16.515 6.345 15.39 5.35498 14.85 5.84999Z" fill="#D21F47"/>
<path d="M8.99995 26.55H4.04995C3.77996 26.55 3.59998 26.37 3.59998 26.1C3.59998 25.83 3.77996 25.65 4.04995 25.65H8.99995C9.26995 25.65 9.44993 25.83 9.44993 26.1C9.44993 26.37 9.26995 26.55 8.99995 26.55Z" fill="#FFDD09"/>
<path d="M8.99995 24.3H4.04995C3.77996 24.3 3.59998 24.1201 3.59998 23.8501C3.59998 23.5801 3.77996 23.4001 4.04995 23.4001H8.99995C9.26995 23.4001 9.44993 23.5801 9.44993 23.8501C9.44993 24.12 9.26995 24.3 8.99995 24.3Z" fill="#FFDD09"/>
<path d="M8.99995 22.05H4.04995C3.77996 22.05 3.59998 21.8701 3.59998 21.6001C3.59998 21.3301 3.77996 21.1501 4.04995 21.1501H8.99995C9.26995 21.1501 9.44993 21.3301 9.44993 21.6001C9.44993 21.8701 9.26995 22.05 8.99995 22.05Z" fill="#FFDD09"/>
<path d="M8.99995 19.8H4.04995C3.77996 19.8 3.59998 19.62 3.59998 19.35C3.59998 19.08 3.77996 18.9 4.04995 18.9H8.99995C9.26995 18.9 9.44993 19.08 9.44993 19.35C9.44993 19.62 9.26995 19.8 8.99995 19.8Z" fill="#FFDD09"/>
<path d="M8.99995 17.55H4.04995C3.77996 17.55 3.59998 17.37 3.59998 17.1C3.59998 16.83 3.77996 16.65 4.04995 16.65H8.99995C9.26995 16.65 9.44993 16.83 9.44993 17.1C9.44993 17.37 9.26995 17.55 8.99995 17.55Z" fill="#FFDD09"/>
<path d="M8.99995 15.3H4.04995C3.77996 15.3 3.59998 15.1201 3.59998 14.8501C3.59998 14.5801 3.77996 14.4001 4.04995 14.4001H8.99995C9.26995 14.4001 9.44993 14.5801 9.44993 14.8501C9.44993 15.1201 9.26995 15.3 8.99995 15.3Z" fill="#FFDD09"/>
<path d="M8.99995 13.05H4.04995C3.77996 13.05 3.59998 12.8701 3.59998 12.6001C3.59998 12.3301 3.77996 12.1501 4.04995 12.1501H8.99995C9.26995 12.1501 9.44993 12.3301 9.44993 12.6001C9.44993 12.87 9.26995 13.05 8.99995 13.05Z" fill="#FFDD09"/>
<path d="M8.99995 10.8H4.04995C3.77996 10.8 3.59998 10.6201 3.59998 10.3501C3.59998 10.0801 3.77996 9.90009 4.04995 9.90009H8.99995C9.26995 9.90009 9.44993 10.0801 9.44993 10.3501C9.44993 10.62 9.26995 10.8 8.99995 10.8Z" fill="#FFDD09"/>
<path d="M8.99995 8.54998H4.04995C3.77996 8.54998 3.59998 8.37 3.59998 8.1C3.59998 7.83 3.77996 7.65002 4.04995 7.65002H8.99995C9.26995 7.65002 9.44993 7.83 9.44993 8.1C9.44993 8.37 9.26995 8.54998 8.99995 8.54998Z" fill="#FFDD09"/>
<path d="M8.99995 6.30004H4.04995C3.77996 6.30004 3.59998 6.12006 3.59998 5.85006C3.59998 5.58006 3.77996 5.40009 4.04995 5.40009H8.99995C9.26995 5.40009 9.44993 5.58006 9.44993 5.85006C9.44993 6.12006 9.26995 6.30004 8.99995 6.30004Z" fill="#FFDD09"/>
<path d="M8.99995 4.05004H4.04995C3.77996 4.05004 3.59998 3.87006 3.59998 3.60006C3.59998 3.33007 3.77996 3.15009 4.04995 3.15009H8.99995C9.26995 3.15009 9.44993 3.33007 9.44993 3.60006C9.44993 3.87006 9.26995 4.05004 8.99995 4.05004Z" fill="#FFDD09"/>
<path d="M8.99995 1.80004H4.04995C3.77996 1.80004 3.59998 1.62006 3.59998 1.35006C3.59998 1.08007 3.77996 0.900085 4.04995 0.900085H8.99995C9.26995 0.900085 9.44993 1.08007 9.44993 1.35006C9.44993 1.62006 9.26995 1.80004 8.99995 1.80004Z" fill="#FFDD09"/>
<path d="M21.1499 26.55H25.1999V19.35H21.1499V26.55Z" fill="#FFDD09"/>
<path d="M25.2 26.55H26.5499V19.35H25.2V26.55Z" fill="#FD9808"/>
<path d="M22.05 19.35H24.3V17.91C24.3 17.46 23.94 17.1 23.49 17.1H22.86C22.4101 17.1 22.05 17.46 22.05 17.91V19.35Z" fill="#FFDD09"/>
<path d="M24.84 17.1H23.49C23.94 17.1 24.3 17.46 24.3 17.91V19.35H25.65V17.91C25.65 17.46 25.2899 17.1 24.84 17.1Z" fill="#FD9808"/>
<path d="M12.15 26.55H16.2V17.55H12.15V26.55Z" fill="#FFDD09"/>
<path d="M16.2 26.55H17.5499V17.55H16.2V26.55Z" fill="#FD9808"/>
<path d="M12.15 17.55H16.2V15.3H12.15V17.55Z" fill="#FFDD09"/>
<path d="M16.2 17.55H17.5499V15.3H16.2V17.55Z" fill="#FD9808"/>
<path d="M3.60007 0.900024H2.16007C1.21508 0.900024 0.450073 1.66503 0.450073 2.655V23.94C0.450073 24.885 1.21508 25.65 2.16007 25.65H3.60007V15.75V13.5V10.8V0.900024Z" fill="#FFDD09"/>
<path d="M1.79999 23.94V2.655C1.79999 1.71001 2.56499 0.945001 3.50998 0.945001H2.16C1.21496 0.90002 0.449951 1.66503 0.449951 2.655V23.94C0.449951 24.885 1.21496 25.65 2.15995 25.65H3.50993C2.56499 25.65 1.79999 24.885 1.79999 23.94Z" fill="white"/>
<path d="M27 27H20.7V18.9H26.9999V27H27ZM21.6 26.1H26.0999V19.8H21.6V26.1Z" fill="black"/>
<path d="M26.0999 19.8H21.6V17.91C21.6 17.235 22.185 16.65 22.86 16.65H24.84C25.515 16.65 26.1 17.2349 26.1 17.91V19.8H26.0999ZM22.4999 18.9H25.1999V17.91C25.1999 17.73 25.02 17.55 24.8399 17.55H22.8599C22.68 17.55 22.4999 17.7299 22.4999 17.91V18.9Z" fill="black"/>
<path d="M23.85 17.55C23.58 17.55 23.4 17.37 23.4 17.1V0.449976C23.4 0.17998 23.58 0 23.85 0C24.12 0 24.3 0.17998 24.3 0.449976V17.0999C24.3 17.37 24.12 17.55 23.85 17.55Z" fill="black"/>
<path d="M25.2 14.85H22.5C22.23 14.85 22.05 14.67 22.05 14.4C22.05 14.1301 22.23 13.9501 22.5 13.9501H25.2C25.47 13.9501 25.65 14.1301 25.65 14.4C25.65 14.67 25.47 14.85 25.2 14.85Z" fill="black"/>
<path d="M25.65 13.5H22.05C21.78 13.5 21.6 13.32 21.6 13.05C21.6 12.78 21.78 12.6 22.05 12.6H25.65C25.92 12.6 26.0999 12.78 26.0999 13.05C26.0999 13.32 25.92 13.5 25.65 13.5Z" fill="black"/>
<path d="M26.1 12.15H21.6C21.33 12.15 21.15 11.97 21.15 11.7C21.15 11.43 21.33 11.2501 21.6 11.2501H26.1C26.37 11.2501 26.5499 11.43 26.5499 11.7C26.5499 11.97 26.37 12.15 26.1 12.15Z" fill="black"/>
<path d="M26.55 10.8H21.15C20.8801 10.8 20.7001 10.6201 20.7001 10.3501C20.7001 10.0801 20.8801 9.90009 21.15 9.90009H26.55C26.82 9.90009 27 10.0801 27 10.3501C27.0001 10.62 26.82 10.8 26.55 10.8Z" fill="black"/>
<path d="M26.55 9.45H21.15C20.8801 9.45 20.7001 9.27002 20.7001 9.00003C20.7001 8.73003 20.8801 8.55005 21.15 8.55005H26.55C26.82 8.55005 27 8.73003 27 9.00003C27.0001 9.27002 26.82 9.45 26.55 9.45Z" fill="black"/>
<path d="M26.55 8.10002H21.15C20.8801 8.10002 20.7001 7.92004 20.7001 7.65005C20.7001 7.38005 20.8801 7.20007 21.15 7.20007H26.55C26.82 7.20007 27 7.38005 27 7.65005C27.0001 7.92004 26.82 8.10002 26.55 8.10002Z" fill="black"/>
<path d="M26.55 6.74999H21.15C20.8801 6.74999 20.7001 6.57001 20.7001 6.30001C20.7001 6.03002 20.8801 5.85004 21.15 5.85004H26.55C26.82 5.85004 27 6.03002 27 6.30001C27.0001 6.56996 26.82 6.74999 26.55 6.74999Z" fill="black"/>
<path d="M26.1 5.39995H21.6C21.33 5.39995 21.15 5.21997 21.15 4.94998C21.15 4.67998 21.33 4.5 21.6 4.5H26.1C26.37 4.5 26.5499 4.67998 26.5499 4.94998C26.5499 5.21997 26.37 5.39995 26.1 5.39995Z" fill="black"/>
<path d="M25.65 4.04998H22.05C21.78 4.04998 21.6 3.87 21.6 3.6C21.6 3.33 21.78 3.15002 22.05 3.15002H25.65C25.92 3.15002 26.0999 3.33 26.0999 3.6C26.1 3.87 25.92 4.04998 25.65 4.04998Z" fill="black"/>
<path d="M25.2 2.7H22.5C22.23 2.7 22.05 2.52002 22.05 2.25002C22.05 1.98003 22.23 1.80005 22.5 1.80005H25.2C25.47 1.80005 25.65 1.98003 25.65 2.25002C25.65 2.52002 25.47 2.7 25.2 2.7Z" fill="black"/>
<path d="M24.75 1.34996H22.95C22.68 1.34996 22.5 1.16998 22.5 0.899988C22.5 0.629992 22.68 0.450012 22.95 0.450012H24.75C25.02 0.450012 25.2 0.629992 25.2 0.899988C25.2 1.16998 25.02 1.34996 24.75 1.34996Z" fill="black"/>
<path d="M18 27H11.7V17.1H17.9999V27H18ZM12.6 26.1H17.0999V18H12.6V26.1Z" fill="black"/>
<path d="M18 18H11.7V14.85H17.9999V18H18ZM12.6 17.1H17.0999V15.75H12.6V17.1Z" fill="black"/>
<path d="M13.725 10.035C13.365 10.035 13.095 9.94499 12.87 9.72002C12.5099 9.36001 12.465 8.82002 12.6449 8.19001C12.8249 7.65002 13.1849 7.11002 13.6799 6.61501C14.175 6.12 14.7149 5.75999 15.2549 5.58001C15.8849 5.355 16.4249 5.44501 16.785 5.80502C17.4599 6.48002 17.0999 7.78502 15.975 8.91004C15.48 9.40505 14.94 9.76506 14.4 9.94504C14.175 9.98997 13.95 10.035 13.725 10.035ZM15.975 6.29998C15.885 6.29998 15.75 6.29998 15.57 6.39C15.165 6.525 14.7149 6.83997 14.31 7.19999C13.905 7.56 13.635 8.05501 13.5 8.46001C13.365 8.82002 13.4099 9 13.5 9.09002C13.59 9.18003 13.77 9.18003 14.13 9.09002C14.535 8.95502 14.985 8.64004 15.39 8.28003C16.2 7.47004 16.38 6.61501 16.2 6.43503C16.155 6.34502 16.065 6.29998 15.975 6.29998Z" fill="black"/>
<path d="M16.6499 15.75H13.05C12.78 15.75 12.6 15.57 12.6 15.3V9.13501C12.6 8.91 12.78 8.73002 12.96 8.68504C13.185 8.64006 13.41 8.77506 13.455 9.00002C13.5 9.045 13.5 9.045 13.5 9.045C13.68 9.22498 14.535 9.045 15.345 8.23501C15.7949 7.78503 16.11 7.29002 16.2 6.83999C16.245 6.61498 16.47 6.47998 16.695 6.47998C16.92 6.52496 17.1 6.705 17.1 6.92996V15.2999C17.0999 15.57 16.9199 15.75 16.6499 15.75ZM13.4999 14.85H16.1999V8.64C16.155 8.73002 16.0649 8.775 15.9749 8.86502C15.1199 9.72004 14.1749 10.125 13.4999 9.99004V14.85Z" fill="black"/>
<path d="M4.05 26.1H2.16002C0.944987 26.1 0 25.11 0 23.94V2.65497C0 1.43998 0.990022 0.494995 2.16002 0.494995H4.05V26.1ZM2.16002 1.34997C1.48503 1.34997 0.900005 1.93494 0.900005 2.65497V23.94C0.900005 24.66 1.48498 25.2 2.16002 25.2H3.15005V1.34997H2.16002Z" fill="black"/>
<path d="M8.54995 26.1H3.6C3.33 26.1 3.15002 25.92 3.15002 25.65C3.15002 25.3801 3.33 25.2001 3.6 25.2001H8.55C8.82 25.2001 8.99998 25.3801 8.99998 25.65C8.99998 25.92 8.81995 26.1 8.54995 26.1Z" fill="black"/>
<path d="M8.54995 23.85H3.6C3.33 23.85 3.15002 23.67 3.15002 23.4C3.15002 23.13 3.33 22.95 3.6 22.95H8.55C8.82 22.95 8.99998 23.13 8.99998 23.4C8.99998 23.67 8.81995 23.85 8.54995 23.85Z" fill="black"/>
<path d="M8.54995 21.6H3.6C3.33 21.6 3.15002 21.42 3.15002 21.15C3.15002 20.88 3.33 20.7 3.6 20.7H8.55C8.82 20.7 8.99998 20.88 8.99998 21.15C8.99998 21.42 8.81995 21.6 8.54995 21.6Z" fill="black"/>
<path d="M8.54995 19.35H3.6C3.33 19.35 3.15002 19.17 3.15002 18.9C3.15002 18.63 3.33 18.45 3.6 18.45H8.55C8.82 18.45 8.99998 18.63 8.99998 18.9C8.99998 19.17 8.81995 19.35 8.54995 19.35Z" fill="black"/>
<path d="M8.54995 17.1H3.6C3.33 17.1 3.15002 16.92 3.15002 16.65C3.15002 16.3801 3.33 16.2001 3.6 16.2001H8.55C8.82 16.2001 8.99998 16.3801 8.99998 16.65C8.99998 16.92 8.81995 17.1 8.54995 17.1Z" fill="black"/>
<path d="M8.54995 14.85H3.6C3.33 14.85 3.15002 14.67 3.15002 14.4C3.15002 14.1301 3.33 13.9501 3.6 13.9501H8.55C8.82 13.9501 8.99998 14.1301 8.99998 14.4C8.99998 14.67 8.81995 14.85 8.54995 14.85Z" fill="black"/>
<path d="M8.54995 12.6H3.6C3.33 12.6 3.15002 12.42 3.15002 12.15C3.15002 11.88 3.33 11.7 3.6 11.7H8.55C8.82 11.7 8.99998 11.88 8.99998 12.15C8.99998 12.42 8.81995 12.6 8.54995 12.6Z" fill="black"/>
<path d="M8.54995 10.35H3.6C3.33 10.35 3.15002 10.17 3.15002 9.89999C3.15002 9.62999 3.33 9.45001 3.6 9.45001H8.55C8.82 9.45001 8.99998 9.62999 8.99998 9.89999C8.99998 10.17 8.81995 10.35 8.54995 10.35Z" fill="black"/>
<path d="M8.54995 8.10002H3.6C3.33 8.10002 3.15002 7.92004 3.15002 7.65005C3.15002 7.38005 3.33 7.20007 3.6 7.20007H8.55C8.82 7.20007 8.99998 7.38005 8.99998 7.65005C8.99998 7.92004 8.81995 8.10002 8.54995 8.10002Z" fill="black"/>
<path d="M8.54995 5.85002H3.6C3.33 5.85002 3.15002 5.67005 3.15002 5.40005C3.15002 5.13005 3.33 4.95007 3.6 4.95007H8.55C8.82 4.95007 8.99998 5.13005 8.99998 5.40005C8.99998 5.67005 8.81995 5.85002 8.54995 5.85002Z" fill="black"/>
<path d="M8.54995 3.60003H3.6C3.33 3.60003 3.15002 3.42005 3.15002 3.15005C3.15002 2.88005 3.33 2.70007 3.6 2.70007H8.55C8.82 2.70007 8.99998 2.88005 8.99998 3.15005C8.99998 3.42005 8.81995 3.60003 8.54995 3.60003Z" fill="black"/>
<path d="M8.54995 1.34996H3.6C3.33 1.34996 3.15002 1.16998 3.15002 0.899988C3.15002 0.629992 3.33 0.450012 3.6 0.450012H8.55C8.82 0.450012 8.99998 0.629992 8.99998 0.899988C8.99998 1.16998 8.81995 1.34996 8.54995 1.34996Z" fill="black"/>
</g>
<defs>
<clipPath id="clip0_365_1382">
<rect width="27" height="27" fill="white"/>
</clipPath>
</defs>
</svg>
