<svg width="24" height="24" viewBox="0 0 24 24" fill="none" xmlns="http://www.w3.org/2000/svg">
<path fill-rule="evenodd" clip-rule="evenodd" d="M12 2C17.522 2 22 6.478 22 12C22 17.522 17.522 22 12 22C6.478 22 2 17.522 2 12C2 6.478 6.478 2 12 2ZM12 4C7.589 4 4 7.589 4 12C4 16.411 7.589 20 12 20C16.411 20 20 16.411 20 12C20 7.589 16.411 4 12 4ZM14.293 8.293L15.707 9.707L13.414 12L15.707 14.293L14.293 15.707L12 13.414L9.707 15.707L8.293 14.293L10.586 12L8.293 9.707L9.707 8.293L12 10.586L14.293 8.293Z" fill="#EA5B5B"/>
</svg>
