<svg width="114" height="114" viewBox="0 0 114 114" fill="none" xmlns="http://www.w3.org/2000/svg">
<path d="M28.5 65.55C30.875 65.55 32.8947 64.7197 34.5591 63.0591C36.2235 61.3985 37.0538 59.3788 37.05 57C37.05 54.625 36.2197 52.6072 34.5591 50.9466C32.8985 49.286 30.8788 48.4538 28.5 48.45C26.125 48.45 24.1072 49.2822 22.4466 50.9466C20.786 52.611 19.9538 54.6288 19.95 57C19.95 59.375 20.7822 61.3947 22.4466 63.0591C24.111 64.7235 26.1288 65.5538 28.5 65.55ZM57 65.55C59.375 65.55 61.3947 64.7197 63.0591 63.0591C64.7235 61.3985 65.5538 59.3788 65.55 57C65.55 54.625 64.7197 52.6072 63.0591 50.9466C61.3985 49.286 59.3788 48.4538 57 48.45C54.625 48.45 52.6072 49.2822 50.9466 50.9466C49.286 52.611 48.4538 54.6288 48.45 57C48.45 59.375 49.2822 61.3947 50.9466 63.0591C52.611 64.7235 54.6288 65.5538 57 65.55ZM85.5 65.55C87.875 65.55 89.8947 64.7197 91.5591 63.0591C93.2235 61.3985 94.0538 59.3788 94.05 57C94.05 54.625 93.2197 52.6072 91.5591 50.9466C89.8985 49.286 87.8788 48.4538 85.5 48.45C83.125 48.45 81.1072 49.2822 79.4466 50.9466C77.786 52.611 76.9538 54.6288 76.95 57C76.95 59.375 77.7822 61.3947 79.4466 63.0591C81.111 64.7235 83.1288 65.5538 85.5 65.55ZM57 114C49.115 114 41.705 112.503 34.77 109.508C27.835 106.514 21.8025 102.454 16.6725 97.3275C11.5425 92.1975 7.4822 86.165 4.4916 79.23C1.501 72.295 0.0038 64.885 0 57C0 49.115 1.4972 41.705 4.4916 34.77C7.486 27.835 11.5463 21.8025 16.6725 16.6725C21.8025 11.5425 27.835 7.4822 34.77 4.4916C41.705 1.501 49.115 0.0038 57 0C64.885 0 72.295 1.4972 79.23 4.4916C86.165 7.486 92.1975 11.5463 97.3275 16.6725C102.458 21.8025 106.52 27.835 109.514 34.77C112.509 41.705 114.004 49.115 114 57C114 64.885 112.503 72.295 109.508 79.23C106.514 86.165 102.454 92.1975 97.3275 97.3275C92.1975 102.458 86.165 106.52 79.23 109.514C72.295 112.509 64.885 114.004 57 114ZM57 102.6C69.73 102.6 80.5125 98.1825 89.3475 89.3475C98.1825 80.5125 102.6 69.73 102.6 57C102.6 44.27 98.1825 33.4875 89.3475 24.6525C80.5125 15.8175 69.73 11.4 57 11.4C44.27 11.4 33.4875 15.8175 24.6525 24.6525C15.8175 33.4875 11.4 44.27 11.4 57C11.4 69.73 15.8175 80.5125 24.6525 89.3475C33.4875 98.1825 44.27 102.6 57 102.6Z" fill="#0E7490"/>
</svg>
