<svg width="101" height="72" viewBox="0 0 101 72" fill="none" xmlns="http://www.w3.org/2000/svg">
<path d="M2.00602 48.086C2.00602 50.9508 2.57029 53.7876 3.66661 56.4343C4.76294 59.0811 6.36985 61.486 8.3956 63.5118C12.4868 67.603 18.0356 69.9014 23.8214 69.9014H81.9959C86.2909 69.9091 90.429 68.2877 93.5756 65.3642C96.7221 62.4408 98.6429 58.4328 98.9504 54.1488C99.2579 49.8648 97.9294 45.6235 95.2327 42.2806C92.536 38.9377 88.6719 36.7418 84.4198 36.136C84.4671 27.8886 81.5093 19.9063 76.0993 13.6811C70.6892 7.45592 63.1973 3.41403 55.0239 2.31097C46.8505 1.20792 38.5551 3.11921 31.6884 7.68755C24.8217 12.2559 19.8537 19.1686 17.7131 27.1335C13.1809 28.457 9.20017 31.2145 6.36813 34.9923C3.53608 38.7702 2.00549 43.3645 2.00602 48.086Z" stroke="#0E7490" stroke-width="4" stroke-linejoin="round"/>
<path d="M50.4847 52.9341H50.5324V52.9818H50.4847V52.9341Z" stroke="#0E7490" stroke-width="4" stroke-linejoin="round"/>
<path d="M50.4847 35.9662V21.4226" stroke="#0E7490" stroke-width="4" stroke-linecap="round" stroke-linejoin="round"/>
</svg>
