<svg width="20" height="20" viewBox="0 0 20 20" fill="none" xmlns="http://www.w3.org/2000/svg">
<g clip-path="url(#clip0_1_438)">
<path d="M1.66669 13.3334C1.66669 10.9764 1.66669 9.79787 2.39892 9.06562C3.13115 8.33337 4.30966 8.33337 6.66669 8.33337H13.3334C15.6904 8.33337 16.8689 8.33337 17.6011 9.06562C18.3334 9.79787 18.3334 10.9764 18.3334 13.3334C18.3334 15.6904 18.3334 16.8689 17.6011 17.6011C16.8689 18.3334 15.6904 18.3334 13.3334 18.3334H6.66669C4.30966 18.3334 3.13115 18.3334 2.39892 17.6011C1.66669 16.8689 1.66669 15.6904 1.66669 13.3334Z" stroke="#0E7490" stroke-width="1.5"/>
<path d="M5 8.33329V6.66663C5 3.9052 7.23857 1.66663 10 1.66663C12.7614 1.66663 15 3.9052 15 6.66663V8.33329" stroke="#0E7490" stroke-width="1.5" stroke-linecap="round"/>
</g>
<defs>
<clipPath id="clip0_1_438">
<rect width="20" height="20" fill="white"/>
</clipPath>
</defs>
</svg>
