<svg width="25" height="30" viewBox="0 0 25 30" fill="none" xmlns="http://www.w3.org/2000/svg">
<path d="M7.09974 18.1094V30H0V0H13.228C15.6671 0 17.6256 0.281739 19.1025 0.845216C20.5794 1.40869 21.8025 2.44516 22.772 3.95462C23.7425 5.46408 24.2282 7.14217 24.2282 8.9889C24.2282 12.5934 22.4863 15.1789 19.0035 16.746L24.5583 30H16.7758L12.1471 18.1094H7.09974ZM7.09974 5.34069V12.9888H11.419C12.8299 12.9888 13.855 12.8901 14.4945 12.6926C15.1339 12.4942 15.7032 12.0541 16.2024 11.3724C16.7026 10.6912 16.9532 9.91123 16.9532 9.03208C16.9532 8.19715 16.7026 7.45013 16.2024 6.79052C15.7032 6.13141 15.1592 5.72474 14.5708 5.57102C13.9834 5.41781 12.882 5.34069 11.2664 5.34069H7.09974Z" fill="#0E7490"/>
</svg>
