<svg width="123" height="126" viewBox="0 0 123 126" fill="none" xmlns="http://www.w3.org/2000/svg">
<path fill-rule="evenodd" clip-rule="evenodd" d="M122.673 63C122.673 97.8363 95.2532 126 61.3366 126C27.4201 126 0 97.8363 0 63C0 28.1637 27.4201 0 61.3366 0C95.2532 0 122.673 28.1637 122.673 63ZM118.623 63C118.623 30.5901 92.8908 4.15955 61.3366 4.15955C29.7824 4.15955 4.04978 30.5901 4.04978 63C4.04978 95.4099 29.7824 121.84 61.3366 121.84C92.8908 121.84 118.623 95.4099 118.623 63ZM91.3723 40.5557C92.216 41.3356 92.216 42.6355 91.3723 43.5021L54.5871 81.2847C54.1652 81.718 53.659 81.8913 53.1528 81.8913C52.6466 81.8913 52.1404 81.718 51.7186 81.2847L31.301 60.3136C30.4573 59.447 30.4573 58.1472 31.301 57.2806C32.0603 56.5007 33.326 56.5007 34.1697 57.2806L53.1528 76.8652L88.5036 40.5557C89.3473 39.6891 90.6129 39.6891 91.3723 40.5557Z" fill="#2ED573"/>
</svg>
