<svg width="24" height="27" viewBox="0 0 24 27" fill="none" xmlns="http://www.w3.org/2000/svg">
<path d="M23.3691 17.5091L22.1608 15.5032C21.9071 15.0562 21.6775 14.2103 21.6775 13.7149V10.6578C21.6775 7.81824 20.01 5.36533 17.6054 4.21741C16.9771 3.10574 15.8171 2.41699 14.4879 2.41699C13.1708 2.41699 11.9866 3.12991 11.3583 4.25366C9.00205 5.42574 7.37081 7.85449 7.37081 10.6578V13.7149C7.37081 14.2103 7.14122 15.0562 6.88747 15.4912L5.66706 17.5091C5.18372 18.3187 5.07497 19.2128 5.37705 20.0345C5.66705 20.8441 6.35581 21.4724 7.24997 21.7745C9.59414 22.572 12.0591 22.9587 14.5241 22.9587C16.9891 22.9587 19.4541 22.572 21.7983 21.7866C22.6441 21.5087 23.2966 20.8682 23.6108 20.0345C23.925 19.2007 23.8404 18.2824 23.3691 17.5091Z" fill="#888888"/>
<path d="M17.9196 24.1791C17.4121 25.5807 16.0709 26.5837 14.5 26.5837C13.5454 26.5837 12.6029 26.197 11.9384 25.5082C11.5517 25.1457 11.2617 24.6624 11.0925 24.167C11.2496 24.1912 11.4067 24.2032 11.5759 24.2274C11.8538 24.2637 12.1438 24.2999 12.4338 24.3241C13.1225 24.3845 13.8234 24.4207 14.5242 24.4207C15.2129 24.4207 15.9017 24.3845 16.5784 24.3241C16.8321 24.2999 17.0859 24.2878 17.3275 24.2516C17.5209 24.2274 17.7142 24.2032 17.9196 24.1791Z" fill="#888888"/>
</svg>
