<svg width="27" height="27" viewBox="0 0 27 27" fill="none" xmlns="http://www.w3.org/2000/svg">
<g clip-path="url(#clip0_365_1210)">
<path d="M12.0283 12.3896V2.17296C12.0283 1.80637 11.7308 1.50885 11.3642 1.50885H2.16765C1.80106 1.50885 1.50354 1.80637 1.50354 2.17296V19.5407C1.50354 19.9073 1.80106 20.2048 2.16765 20.2048H9.93506C9.77036 20.0667 9.66942 19.8595 9.66942 19.631V17.0277C9.66942 16.6824 9.9085 16.3796 10.2432 16.2999L12.1824 15.827C12.193 15.8005 12.2037 15.7739 12.2143 15.7473L11.1783 14.0419C10.9976 13.7444 11.0455 13.3672 11.2898 13.1228L12.0283 12.3896Z" fill="white"/>
<path d="M23.2066 16.7037C23.1322 16.4858 23.0419 16.2627 22.9303 16.0396C22.8135 15.8111 22.8241 15.5348 22.9622 15.317L23.9026 13.7763L22.8932 12.7668L21.3524 13.7072C21.1346 13.84 20.8583 13.8507 20.6299 13.7391C20.4067 13.6275 20.1836 13.5372 19.9658 13.4628C19.7214 13.3831 19.5354 13.1812 19.477 12.9315L19.052 11.1783H17.6281L17.2031 12.9315C17.1446 13.1812 16.9587 13.3831 16.7143 13.4628C16.4912 13.5372 16.268 13.6275 16.0502 13.7391C15.8217 13.856 15.5455 13.8453 15.3276 13.7072L13.7869 12.7668L12.7775 13.7763L13.7178 15.317C13.8507 15.5348 13.8613 15.8111 13.7497 16.0396C13.6381 16.2627 13.5478 16.4858 13.4734 16.7037C13.3937 16.9481 13.1919 17.134 12.9368 17.1925L11.1836 17.6175V19.0413L12.9368 19.4664C13.1865 19.5248 13.3884 19.7108 13.4681 19.9551C13.5425 20.173 13.6328 20.3961 13.7444 20.6193C13.8613 20.8477 13.8507 21.124 13.7125 21.3471L12.7721 22.8878L13.7816 23.8973L15.3223 22.9569C15.5401 22.8241 15.8164 22.8135 16.0449 22.925C16.268 23.0366 16.4911 23.1269 16.709 23.2013C16.9534 23.281 17.1393 23.4829 17.1978 23.7326L17.6228 25.4858H19.0466L19.4717 23.7326C19.5301 23.4829 19.7161 23.281 19.9605 23.2013C20.1836 23.1269 20.4067 23.0366 20.6246 22.925C20.853 22.8082 21.1293 22.8188 21.3471 22.9569L22.8878 23.8973L23.8973 22.8878L22.9569 21.3471C22.8241 21.124 22.8135 20.853 22.925 20.6193C23.0366 20.3961 23.1269 20.173 23.2013 19.9551C23.281 19.7108 23.4829 19.5248 23.7379 19.4664L25.4911 19.0413V17.6175L23.7379 17.1925C23.4882 17.134 23.2863 16.9481 23.2066 16.7037Z" fill="#FFC10D"/>
<path d="M2.99646 3.00177V18.7066H10.4185L10.5248 12.6978V3.00177H2.99646Z" fill="#56ACE0"/>
<path d="M20.1676 18.3347C20.1676 17.32 19.3441 16.4965 18.3293 16.4965C17.3146 16.4965 16.4911 17.32 16.4911 18.3347C16.4911 19.3495 17.3146 20.173 18.3293 20.173C19.3441 20.173 20.1676 19.3495 20.1676 18.3347Z" fill="white"/>
<path d="M18.3294 14.9982C16.4911 14.9982 14.9929 16.4965 14.9929 18.3347C14.9929 20.173 16.4911 21.6712 18.3294 21.6712C20.1677 21.6712 21.6659 20.173 21.6659 18.3347C21.6659 16.4965 20.1677 14.9982 18.3294 14.9982ZM16.4911 18.3347C16.4911 17.32 17.3146 16.4965 18.3294 16.4965C19.3442 16.4965 20.1677 17.32 20.1677 18.3347C20.1677 19.3495 19.3442 20.173 18.3294 20.173C17.3146 20.173 16.4911 19.3495 16.4911 18.3347Z" fill="#194F82"/>
<path d="M26.4156 16.3052L24.4764 15.8323C24.4658 15.8058 24.4551 15.7792 24.4445 15.7527L25.4805 14.0472C25.6612 13.7497 25.6133 13.3725 25.3689 13.1281L23.5307 11.2898C23.2863 11.0455 22.9091 10.9976 22.6116 11.1783L20.9061 12.2143C20.8796 12.2037 20.853 12.193 20.8264 12.1824L20.3536 10.2432C20.2739 9.9085 19.9711 9.66942 19.6257 9.66942H17.0224C16.6771 9.66942 16.3743 9.9085 16.2946 10.2432L15.8217 12.1824C15.7952 12.193 15.7686 12.2037 15.742 12.2143L14.0366 11.1783C13.8772 11.0826 13.6913 11.0561 13.5159 11.088V2.17296C13.5159 0.977565 12.5437 0.00531006 11.3483 0.00531006H2.16765C0.972255 0.00531006 0 0.977565 0 2.17296V19.5407C0 20.7361 0.972255 21.7084 2.16765 21.7084H11.7308L11.1783 22.6169C10.9976 22.9144 11.0455 23.2916 11.2898 23.536L13.1281 25.3743C13.3725 25.6187 13.7497 25.6665 14.0472 25.4858L15.7527 24.4498C15.7792 24.4604 15.8058 24.4711 15.8323 24.4817L16.3052 26.4209C16.3849 26.7556 16.6877 26.9947 17.0331 26.9947H19.6364C19.9817 26.9947 20.2845 26.7556 20.3642 26.4209L20.8371 24.4817C20.8636 24.4711 20.8902 24.4604 20.9168 24.4498L22.6222 25.4858C22.9197 25.6665 23.2969 25.6187 23.5413 25.3743L25.3796 23.536C25.624 23.2916 25.6718 22.9091 25.4911 22.6169L24.4551 20.9114C24.4658 20.8849 24.4764 20.8583 24.487 20.8318L26.4262 20.3589C26.7609 20.2792 27 19.9764 27 19.631V17.0277C26.9894 16.6877 26.7503 16.3849 26.4156 16.3052ZM25.4911 19.0466L23.7379 19.4717C23.4882 19.5301 23.2863 19.7161 23.2013 19.9604C23.1269 20.1783 23.0366 20.4067 22.925 20.6246C22.8081 20.853 22.8188 21.1293 22.9569 21.3524L23.8973 22.8931L22.8878 23.9026L21.3471 22.9622C21.1293 22.8294 20.853 22.8188 20.6246 22.9303C20.4014 23.0419 20.1783 23.1322 19.9604 23.2066C19.7161 23.2863 19.5301 23.4882 19.4717 23.7379L19.0466 25.4911H17.6228L17.1978 23.7379C17.1393 23.4882 16.9534 23.2863 16.709 23.2066C16.4858 23.1322 16.2627 23.0419 16.0449 22.9303C15.8164 22.8135 15.5401 22.8241 15.3223 22.9622L13.7816 23.9026L12.7721 22.8931L13.7125 21.3524C13.8453 21.1293 13.856 20.8583 13.7444 20.6246C13.6328 20.4014 13.5425 20.1783 13.4681 19.9604C13.3884 19.7161 13.1865 19.5301 12.9368 19.4717L11.1836 19.0466V17.6228L12.9368 17.1978C13.1865 17.1393 13.3884 16.9534 13.4734 16.709C13.5478 16.4911 13.6381 16.268 13.7497 16.0449C13.8666 15.8164 13.856 15.5401 13.7178 15.3223L12.7774 13.7816L13.7869 12.7721L15.3276 13.7125C15.5455 13.8453 15.8217 13.856 16.0502 13.7444C16.2733 13.6328 16.4965 13.5425 16.7143 13.4681C16.9587 13.3884 17.1446 13.1865 17.2031 12.9368L17.6281 11.1836H19.0519L19.477 12.9368C19.5407 13.1865 19.7214 13.3884 19.9658 13.4681C20.1836 13.5425 20.4067 13.6328 20.6299 13.7444C20.8583 13.8613 21.1346 13.8506 21.3524 13.7125L22.8932 12.7721L23.9026 13.7816L22.9622 15.3223C22.8294 15.5401 22.8188 15.8164 22.9303 16.0449C23.0419 16.268 23.1322 16.4911 23.2066 16.709C23.2863 16.9534 23.4882 17.1393 23.7432 17.1978L25.4965 17.6228V19.0466H25.4911ZM9.93507 20.2101H2.16765C1.80106 20.2101 1.50354 19.9126 1.50354 19.546V2.17296C1.50354 1.80637 1.80106 1.50885 2.16765 1.50885H11.3642C11.7308 1.50885 12.0283 1.80637 12.0283 2.17296V12.3896L11.2845 13.1334C11.0401 13.3778 10.9923 13.7603 11.173 14.0525L12.209 15.758C12.1983 15.7845 12.1877 15.8111 12.1771 15.8377L10.2379 16.3105C9.90319 16.3902 9.66411 16.693 9.66411 17.0384V19.6417C9.66942 19.8648 9.77037 20.0667 9.93507 20.2101Z" fill="#194F82"/>
<path d="M9.94575 7.76742C9.94575 7.35302 9.61104 7.01831 9.19664 7.01831H4.33005C3.91564 7.01831 3.58093 7.35302 3.58093 7.76742C3.58093 8.18183 3.91564 8.51654 4.33005 8.51654H9.19132C9.61104 8.51654 9.94575 8.18183 9.94575 7.76742Z" fill="#194F82"/>
<path d="M4.33005 5.04724H9.19132C9.60573 5.04724 9.94044 4.71253 9.94044 4.29813C9.94044 3.88372 9.60573 3.54901 9.19132 3.54901H4.33005C3.91564 3.54901 3.58093 3.88372 3.58093 4.29813C3.58093 4.71253 3.91564 5.04724 4.33005 5.04724Z" fill="#194F82"/>
<path d="M6.76323 13.2662C6.39664 13.2662 6.09912 13.5638 6.09912 13.9303C6.09912 14.2969 6.39664 14.5945 6.76323 14.5945C7.12982 14.5945 7.42734 14.2969 7.42734 13.9303C7.42734 13.5638 7.12982 13.2662 6.76323 13.2662Z" fill="white"/>
<path d="M6.76323 11.768C5.56784 11.768 4.59558 12.7403 4.59558 13.9357C4.59558 15.1311 5.56784 16.1033 6.76323 16.1033C7.95863 16.1033 8.93088 15.1311 8.93088 13.9357C8.93088 12.7403 7.95863 11.768 6.76323 11.768ZM6.76323 14.5998C6.39664 14.5998 6.09912 14.3022 6.09912 13.9357C6.09912 13.5691 6.39664 13.2715 6.76323 13.2715C7.12982 13.2715 7.42734 13.5691 7.42734 13.9357C7.42734 14.2969 7.12982 14.5998 6.76323 14.5998Z" fill="#194F82"/>
</g>
<defs>
<clipPath id="clip0_365_1210">
<rect width="27" height="27" fill="white"/>
</clipPath>
</defs>
</svg>
