<svg width="102" height="29" viewBox="0 0 102 29" fill="none" xmlns="http://www.w3.org/2000/svg">
<path d="M0.928751 28.0932H27.5634L24.5396 25.1409H3.83375V3.74232L24.5808 3.78137L27.555 0.906797H0.928751V28.0932ZM29.8054 29H0V0H29.8138L24.9621 4.68898L4.7625 4.65074V24.2341H24.9242L29.8054 29Z" fill="#EBF4FF"/>
<path d="M10.1971 19.198H19.7225V9.89776H10.1971V19.198ZM20.6512 20.1048H9.26831V8.99097H20.6512V20.1048Z" fill="#EBF4FF"/>
<path d="M55.6718 2.42944V7.12412H49.6518V26.1681H43.8801V7.12412H37.8234V2.42944H55.6718Z" fill="#EBF4FF"/>
<path d="M63.8305 16.7592V26.1681H58.0938V2.42944H68.7822C70.753 2.42944 72.3355 2.65238 73.5288 3.09825C74.7222 3.54412 75.7105 4.36427 76.4938 5.55869C77.278 6.7531 77.6705 8.08096 77.6705 9.54224C77.6705 12.3944 76.263 14.4403 73.4488 15.6803L77.9372 26.1681H71.6488L67.9088 16.7592H63.8305ZM63.8305 6.65547V12.7073H67.3205C68.4605 12.7073 69.2888 12.6292 69.8055 12.473C70.3222 12.3159 70.7822 11.9677 71.1855 11.4283C71.5897 10.8892 71.7922 10.2721 71.7922 9.57642C71.7922 8.91575 71.5897 8.32464 71.1855 7.80269C70.7822 7.28115 70.3426 6.95936 69.8672 6.83772C69.3926 6.71649 68.5026 6.65547 67.1972 6.65547H63.8305Z" fill="#EBF4FF"/>
<path d="M82.05 2.42944H89.4783C92.5058 2.42944 94.7621 2.83789 96.2467 3.65478C97.7308 4.47167 99.0608 5.76454 100.237 7.53257C101.412 9.301 102 11.5357 102 14.2369C102 17.6347 100.972 20.4726 98.9183 22.7508C96.8637 25.029 94.0317 26.1681 90.4217 26.1681H82.05V2.42944ZM87.6433 6.79378V21.698H89.995C92.0725 21.698 93.6158 20.9421 94.625 19.4295C95.635 17.9162 96.14 16.1392 96.14 14.0986C96.14 12.6613 95.8517 11.3314 95.275 10.1085C94.6992 8.88483 93.9837 8.02685 93.1283 7.53419C92.2737 7.04072 91.2471 6.79378 90.0483 6.79378H87.6433Z" fill="#EBF4FF"/>
</svg>
