<svg width="20" height="20" viewBox="0 0 20 20" fill="none" xmlns="http://www.w3.org/2000/svg">
<path d="M9.99996 9.58317C9.44743 9.58317 8.91752 9.36368 8.52682 8.97298C8.13612 8.58228 7.91663 8.05237 7.91663 7.49984C7.91663 6.9473 8.13612 6.4174 8.52682 6.0267C8.91752 5.636 9.44743 5.4165 9.99996 5.4165C10.5525 5.4165 11.0824 5.636 11.4731 6.0267C11.8638 6.4174 12.0833 6.9473 12.0833 7.49984C12.0833 7.77342 12.0294 8.04433 11.9247 8.29709C11.82 8.54986 11.6666 8.77952 11.4731 8.97298C11.2796 9.16643 11.05 9.31989 10.7972 9.42459C10.5445 9.52928 10.2735 9.58317 9.99996 9.58317ZM9.99996 1.6665C8.45286 1.6665 6.96913 2.28109 5.87517 3.37505C4.78121 4.46901 4.16663 5.95274 4.16663 7.49984C4.16663 11.8748 9.99996 18.3332 9.99996 18.3332C9.99996 18.3332 15.8333 11.8748 15.8333 7.49984C15.8333 5.95274 15.2187 4.46901 14.1247 3.37505C13.0308 2.28109 11.5471 1.6665 9.99996 1.6665Z" fill="#EA5B5B"/>
</svg>
