<svg width="20" height="20" viewBox="0 0 20 20" fill="none" xmlns="http://www.w3.org/2000/svg">
<path d="M10 9.58329C9.44746 9.58329 8.91756 9.3638 8.52686 8.9731C8.13616 8.5824 7.91666 8.05249 7.91666 7.49996C7.91666 6.94742 8.13616 6.41752 8.52686 6.02682C8.91756 5.63612 9.44746 5.41663 10 5.41663C10.5525 5.41663 11.0824 5.63612 11.4731 6.02682C11.8638 6.41752 12.0833 6.94742 12.0833 7.49996C12.0833 7.77355 12.0294 8.04446 11.9247 8.29722C11.82 8.54998 11.6666 8.77964 11.4731 8.9731C11.2797 9.16655 11.05 9.32001 10.7973 9.42471C10.5445 9.52941 10.2736 9.58329 10 9.58329ZM10 1.66663C8.4529 1.66663 6.96917 2.28121 5.87521 3.37517C4.78125 4.46913 4.16666 5.95286 4.16666 7.49996C4.16666 11.875 10 18.3333 10 18.3333C10 18.3333 15.8333 11.875 15.8333 7.49996C15.8333 5.95286 15.2187 4.46913 14.1248 3.37517C13.0308 2.28121 11.5471 1.66663 10 1.66663Z" fill="#0E7490"/>
</svg>
