<svg width="15" height="15" viewBox="0 0 15 15" fill="none" xmlns="http://www.w3.org/2000/svg">
<path fill-rule="evenodd" clip-rule="evenodd" d="M9.22316 1.63824C9.772 1.0894 10.5164 0.781072 11.2925 0.781072C12.0687 0.781072 12.8131 1.0894 13.3619 1.63824C13.9107 2.18707 14.2191 2.93144 14.2191 3.70761C14.2191 4.48378 13.9107 5.22815 13.3619 5.77699L7.43316 11.7057C7.09441 12.0445 6.89566 12.2432 6.67316 12.4164C6.41191 12.6207 6.12941 12.7957 5.82941 12.9382C5.57566 13.0589 5.30816 13.1482 4.85441 13.2995L2.77191 13.9932L2.27066 14.1607C2.07131 14.2273 1.85735 14.237 1.65279 14.1887C1.44823 14.1405 1.26115 14.0362 1.11254 13.8876C0.963923 13.739 0.859648 13.5519 0.811406 13.3474C0.763164 13.1428 0.772862 12.9288 0.839413 12.7295L1.70066 10.1464C1.85191 9.69199 1.94129 9.42449 2.06191 9.17011C2.20504 8.87074 2.37941 8.58824 2.58379 8.32636C2.75629 8.10511 2.95566 7.90574 3.29441 7.56699L9.22316 1.63824ZM2.75004 13.0132L4.52566 12.4207C5.02004 12.2557 5.23004 12.1851 5.42566 12.092C5.66316 11.9782 5.88816 11.8395 6.09629 11.6776C6.26691 11.5439 6.42441 11.3882 6.79316 11.0195L11.5244 6.28824C10.8757 6.05837 10.2869 5.68589 9.80129 5.19824C9.31405 4.71253 8.942 4.12369 8.71254 3.47511L3.98129 8.20636C3.61254 8.57449 3.45629 8.73136 3.32316 8.90261C3.16132 9.1106 3.02239 9.33544 2.90879 9.57324C2.81566 9.76886 2.74504 9.97886 2.58004 10.4732L1.98754 12.2501L2.75004 13.0132ZM9.47191 2.71449C9.49379 2.82386 9.52941 2.97261 9.59004 3.14574C9.77282 3.66892 10.072 4.14377 10.465 4.53449C10.8556 4.92744 11.3302 5.22662 11.8532 5.40949C12.0269 5.47011 12.1757 5.50574 12.285 5.52761L12.6988 5.11386C13.0696 4.74045 13.2773 4.23529 13.2764 3.70905C13.2754 3.18281 13.066 2.67838 12.6939 2.30627C12.3218 1.93416 11.8173 1.72471 11.2911 1.72378C10.7649 1.72286 10.2597 1.93055 9.88629 2.30136L9.47191 2.71449Z" fill="#2A324B"/>
</svg>
