<svg width="24" height="24" viewBox="0 0 24 24" fill="none" xmlns="http://www.w3.org/2000/svg">
<path d="M20.987 16C20.9913 15.8932 20.9781 15.7865 20.948 15.684L18.948 9.684C18.882 9.48479 18.7548 9.31147 18.5846 9.18867C18.4144 9.06588 18.2099 8.99986 18 9H14V11H17.279L18.946 16H5.054L6.721 11H10V9H6C5.79013 8.99986 5.58556 9.06588 5.41537 9.18867C5.24518 9.31147 5.11803 9.48479 5.052 9.684L3.052 15.684C3.02186 15.7865 3.00869 15.8932 3.013 16C3 16 3 21 3 21C3 21.2652 3.10536 21.5196 3.29289 21.7071C3.48043 21.8946 3.73478 22 4 22H20C20.2652 22 20.5196 21.8946 20.7071 21.7071C20.8946 21.5196 21 21.2652 21 21C21 21 21 16 20.987 16ZM16 7.904C16.259 7.904 16.518 7.809 16.707 7.621C16.8945 7.43347 16.9998 7.17916 16.9998 6.914C16.9998 6.64884 16.8945 6.39453 16.707 6.207L12 1.5L7.293 6.207C7.10553 6.39453 7.00021 6.64884 7.00021 6.914C7.00021 7.17916 7.10553 7.43347 7.293 7.621C7.482 7.81 7.741 7.904 8 7.904C8.259 7.904 8.518 7.81 8.707 7.621L11 5.328V12C11 12.2652 11.1054 12.5196 11.2929 12.7071C11.4804 12.8946 11.7348 13 12 13C12.2652 13 12.5196 12.8946 12.7071 12.7071C12.8946 12.5196 13 12.2652 13 12V5.328L15.293 7.621C15.4819 7.80517 15.7362 7.90693 16 7.904Z" fill="#0E7490"/>
</svg>
