<svg width="19" height="19" viewBox="0 0 19 19" fill="none" xmlns="http://www.w3.org/2000/svg">
<path d="M1.58335 3.38042L2.59669 2.375L15.8334 15.6117L14.8279 16.625L12.3896 14.1867C11.4792 14.4875 10.5134 14.6458 9.50002 14.6458C5.54169 14.6458 2.16127 12.1838 0.791687 8.70833C1.33794 7.315 2.20877 6.08792 3.3171 5.11417L1.58335 3.38042ZM9.50002 6.33333C10.1299 6.33333 10.734 6.58356 11.1794 7.02895C11.6248 7.47435 11.875 8.07844 11.875 8.70833C11.8754 8.97795 11.8299 9.24566 11.7404 9.5L8.70835 6.46792C8.96269 6.37845 9.2304 6.33293 9.50002 6.33333ZM9.50002 2.77083C13.4584 2.77083 16.8388 5.23292 18.2084 8.70833C17.5622 10.3496 16.4643 11.7742 15.0417 12.8171L13.9175 11.685C15.0123 10.9277 15.8953 9.903 16.4825 8.70833C15.8425 7.40204 14.8489 6.30148 13.6145 5.53177C12.3802 4.76207 10.9547 4.35407 9.50002 4.35417C8.6371 4.35417 7.79002 4.49667 6.99835 4.75L5.77919 3.53875C6.91919 3.04792 8.17794 2.77083 9.50002 2.77083ZM2.51752 8.70833C3.15753 10.0146 4.15118 11.1152 5.38551 11.8849C6.61985 12.6546 8.04536 13.0626 9.50002 13.0625C10.0463 13.0625 10.5846 13.0071 11.0834 12.8963L9.27835 11.0833C8.72748 11.0243 8.21342 10.7784 7.82167 10.3867C7.42991 9.99493 7.18407 9.48087 7.12502 8.93L4.43335 6.23042C3.6496 6.90333 2.99252 7.7425 2.51752 8.70833Z" fill="#0E7490"/>
</svg>
