<svg width="27" height="27" viewBox="0 0 27 27" fill="none" xmlns="http://www.w3.org/2000/svg">
<path d="M24.75 6.75V15.75C24.75 16.3687 24.2437 16.875 23.625 16.875H20.25V23.625C20.25 24.2437 19.7437 24.75 19.125 24.75H7.875C7.25625 24.75 6.75 24.2437 6.75 23.625V16.875H3.375C2.75625 16.875 2.25 16.3687 2.25 15.75V6.75C2.25 4.26375 4.26375 2.25 6.75 2.25H20.25C22.7362 2.25 24.75 4.26375 24.75 6.75Z" fill="#2FA3D5"/>
<path d="M20.25 19.125H6.75V21.375H20.25V19.125Z" fill="#4558A3"/>
<path d="M18.045 3.375C18.045 3.38625 18.045 3.38625 18.045 3.3975C18.045 3.40875 18.045 3.40875 18.045 3.42C18.045 3.465 18.045 3.51 18.0338 3.555C17.9437 5.97375 15.93 7.92 13.5 7.92C11.07 7.92 9.05621 5.97375 8.96621 3.555C8.95496 3.51 8.95496 3.465 8.95496 3.42C8.95496 3.40875 8.95496 3.40875 8.95496 3.3975C8.95496 3.38636 8.95496 3.38636 8.95496 3.375C8.95496 3.33 8.95496 3.285 8.96609 3.24C8.97746 2.9025 9.03371 2.565 9.12371 2.25H17.8762C17.9662 2.565 18.0225 2.9025 18.0337 3.24C18.045 3.285 18.045 3.33 18.045 3.375Z" fill="#4558A3"/>
<path d="M6.75 2.25V16.875H3.375C2.75625 16.875 2.25 16.3687 2.25 15.75V6.75C2.25 4.26375 4.26375 2.25 6.75 2.25Z" fill="#FFBF42"/>
<path d="M24.75 6.75V15.75C24.75 16.3687 24.2438 16.875 23.625 16.875H20.25V2.25C22.7362 2.25 24.75 4.26375 24.75 6.75Z" fill="#FFBF42"/>
</svg>
