<svg width="21" height="21" viewBox="0 0 21 21" fill="none" xmlns="http://www.w3.org/2000/svg">
<path fill-rule="evenodd" clip-rule="evenodd" d="M12.9124 2.29329C13.6807 1.52492 14.7229 1.09326 15.8095 1.09326C16.8961 1.09326 17.9383 1.52492 18.7066 2.29329C19.475 3.06166 19.9067 4.10378 19.9067 5.19042C19.9067 6.27705 19.475 7.31918 18.7066 8.08754L10.4064 16.3878C9.93213 16.862 9.65388 17.1403 9.34237 17.3827C8.97662 17.6688 8.58112 17.9138 8.16112 18.1133C7.80587 18.2822 7.43138 18.4073 6.79612 18.619L3.88062 19.5903L3.17887 19.8248C2.89977 19.918 2.60024 19.9315 2.31385 19.864C2.02747 19.7965 1.76556 19.6505 1.5575 19.4424C1.34944 19.2344 1.20345 18.9725 1.13591 18.6861C1.06837 18.3997 1.08195 18.1001 1.17512 17.821L2.38087 14.2047C2.59262 13.5685 2.71775 13.194 2.88662 12.8379C3.087 12.4188 3.33112 12.0233 3.61725 11.6567C3.85875 11.3469 4.13787 11.0678 4.61212 10.5935L12.9124 2.29329ZM3.85 18.2183L6.33588 17.3888C7.028 17.1578 7.322 17.0589 7.59587 16.9285C7.92837 16.7693 8.24337 16.575 8.53475 16.3484C8.77362 16.1612 8.99412 15.9433 9.51038 15.427L16.1341 8.80329C15.226 8.48148 14.4016 7.96001 13.7218 7.27729C13.0396 6.5973 12.5187 5.77293 12.1975 4.86492L5.57375 11.4887C5.0575 12.004 4.83875 12.2237 4.65237 12.4634C4.42579 12.7546 4.23129 13.0694 4.07225 13.4023C3.94187 13.6762 3.843 13.9702 3.612 14.6623L2.7825 17.1499L3.85 18.2183ZM13.2606 3.80004C13.2912 3.95317 13.3411 4.16142 13.426 4.40379C13.6819 5.13625 14.1008 5.80104 14.651 6.34804C15.1977 6.89817 15.8622 7.31703 16.5944 7.57304C16.8376 7.65791 17.0459 7.70779 17.199 7.73842L17.7783 7.15917C18.2974 6.63639 18.5881 5.92917 18.5869 5.19243C18.5856 4.45569 18.2923 3.7495 17.7714 3.22854C17.2504 2.70759 16.5442 2.41435 15.8075 2.41306C15.0707 2.41177 14.3635 2.70254 13.8407 3.22167L13.2606 3.80004Z" fill="#2A324B"/>
</svg>
