<svg width="30" height="30" viewBox="0 0 30 30" fill="none" xmlns="http://www.w3.org/2000/svg">
<path d="M14.0625 23.75C14.0625 23.5014 14.1613 23.2629 14.3371 23.0871C14.5129 22.9113 14.7514 22.8125 15 22.8125H22.5C22.5829 22.8125 22.6624 22.7796 22.721 22.721C22.7796 22.6624 22.8125 22.5829 22.8125 22.5V7.5C22.8125 7.41712 22.7796 7.33763 22.721 7.27903C22.6624 7.22042 22.5829 7.1875 22.5 7.1875H15C14.7514 7.1875 14.5129 7.08873 14.3371 6.91291C14.1613 6.7371 14.0625 6.49864 14.0625 6.25C14.0625 6.00136 14.1613 5.7629 14.3371 5.58709C14.5129 5.41127 14.7514 5.3125 15 5.3125H22.5C23.7075 5.3125 24.6875 6.2925 24.6875 7.5V22.5C24.6875 23.0802 24.457 23.6366 24.0468 24.0468C23.6366 24.457 23.0802 24.6875 22.5 24.6875H15C14.7514 24.6875 14.5129 24.5887 14.3371 24.4129C14.1613 24.2371 14.0625 23.9986 14.0625 23.75Z" fill="#EA5B5B"/>
<path d="M19.515 16.3937C19.515 16.7253 19.3833 17.0432 19.1489 17.2776C18.9145 17.512 18.5965 17.6437 18.265 17.6437H12.195C12.1662 18.0887 12.13 18.5312 12.0875 18.9762L12.05 19.3575C12.036 19.5012 11.9876 19.6394 11.9088 19.7604C11.8301 19.8813 11.7233 19.9815 11.5975 20.0524C11.4718 20.1234 11.3308 20.1629 11.1865 20.1677C11.0422 20.1725 10.8989 20.1424 10.7687 20.08C8.48371 18.9849 6.41513 17.4862 4.66249 15.6562L4.62499 15.6175C4.4641 15.4497 4.37427 15.2262 4.37427 14.9937C4.37427 14.7613 4.4641 14.5378 4.62499 14.37L4.66249 14.3312C6.41511 12.5012 8.4837 11.0026 10.7687 9.90749C10.8989 9.84509 11.0422 9.81501 11.1865 9.8198C11.3308 9.8246 11.4718 9.86413 11.5975 9.93504C11.7233 10.0059 11.8301 10.1061 11.9088 10.2271C11.9876 10.3481 12.036 10.4863 12.05 10.63L12.0875 11.0112C12.13 11.455 12.1662 11.8987 12.195 12.3437H18.265C18.5965 12.3437 18.9145 12.4754 19.1489 12.7099C19.3833 12.9443 19.515 13.2622 19.515 13.5937V16.3937Z" fill="#EA5B5B"/>
</svg>
