<svg width="98" height="30" viewBox="0 0 98 30" fill="none" xmlns="http://www.w3.org/2000/svg">
<path d="M29.9997 14.9072C29.9646 12.0311 29.1133 9.22492 27.5462 6.81924C25.9791 4.41356 23.7614 2.50854 21.1543 1.32853C18.5471 0.148522 15.6592 -0.257333 12.8305 0.158765C10.0018 0.574863 7.35014 1.79558 5.18787 3.67716C3.0256 5.55874 1.44274 8.02283 0.625695 10.7792C-0.191351 13.5356 -0.208555 16.4695 0.576111 19.2354C1.36078 22.0013 2.91463 24.484 5.05469 26.3911C7.19474 28.2982 9.83186 29.5504 12.6555 30V19.303H8.90537V14.9072H12.6555V11.5679C12.5687 10.7915 12.6524 10.0053 12.9006 9.26496C13.1488 8.52458 13.5554 7.84805 14.0919 7.28309C14.6284 6.71814 15.2815 6.27855 16.0053 5.99534C16.7291 5.71213 17.5058 5.59221 18.2806 5.64404C19.4054 5.65953 20.5273 5.76044 21.637 5.94589V9.71909H19.7619C19.4386 9.67806 19.1102 9.71066 18.8011 9.81448C18.492 9.91829 18.21 10.0907 17.976 10.3189C17.742 10.5471 17.5619 10.8253 17.4491 11.1329C17.3364 11.4406 17.2937 11.7698 17.3244 12.0962V14.945H21.487L20.812 19.3407H17.3431V29.9057C20.8868 29.3417 24.1122 27.5185 26.4343 24.7667C28.7564 22.015 30.0214 18.517 29.9997 14.9072Z" fill="#1A73E9"/>
<path d="M72.5 28V14.6095L68.5458 10.8103L65 8.70203V25.6369C65 26.9444 66.0087 28 67.2501 28H72.5Z" fill="#4285F4"/>
<path d="M90.5 27.9999H95.75C96.9951 27.9999 98 26.9404 98 25.6368V8.70203L93.9838 11.1168L90.5 14.6094V27.9999Z" fill="#34A853"/>
<path d="M72.5001 14.6095L71.962 9.37747L72.5001 4.36987L81.5001 11.4589L90.5 4.36987L91.1019 9.10711L90.5 14.6095L81.5001 21.6986L72.5001 14.6095Z" fill="#EA4335"/>
<path d="M90.5 4.36966V14.6093L98 8.70184V5.55113C98 2.62894 94.8238 0.963077 92.6001 2.71558L90.5 4.36966Z" fill="#FBBC04"/>
<path d="M65 8.70191L68.4494 11.419L72.5 14.6094V4.36972L70.3999 2.71564C68.1724 0.963004 65 2.629 65 5.55106V8.70177V8.70191Z" fill="#C5221F"/>
</svg>
