<svg width="24" height="27" viewBox="0 0 24 27" fill="none" xmlns="http://www.w3.org/2000/svg">
<path d="M23.3692 17.5087L22.1608 15.5029C21.9071 15.0558 21.6775 14.21 21.6775 13.7145V10.6575C21.6775 7.81788 20.01 5.36496 17.6054 4.21704C16.9771 3.10538 15.8171 2.41663 14.4879 2.41663C13.1708 2.41663 11.9867 3.12954 11.3583 4.25329C9.00208 5.42538 7.37084 7.85413 7.37084 10.6575V13.7145C7.37084 14.21 7.14125 15.0558 6.8875 15.4908L5.66709 17.5087C5.18375 18.3183 5.075 19.2125 5.37709 20.0341C5.66709 20.8437 6.35584 21.472 7.25 21.7741C9.59417 22.5716 12.0592 22.9583 14.5242 22.9583C16.9892 22.9583 19.4542 22.5716 21.7983 21.7862C22.6442 21.5083 23.2967 20.8679 23.6108 20.0341C23.925 19.2004 23.8404 18.282 23.3692 17.5087Z" fill="#0E7490"/>
<path d="M17.9196 24.1787C17.4121 25.5804 16.0708 26.5833 14.5 26.5833C13.5454 26.5833 12.6029 26.1966 11.9383 25.5079C11.5517 25.1454 11.2617 24.662 11.0925 24.1666C11.2496 24.1908 11.4067 24.2029 11.5758 24.227C11.8537 24.2633 12.1437 24.2995 12.4337 24.3237C13.1225 24.3841 13.8233 24.4204 14.5242 24.4204C15.2129 24.4204 15.9017 24.3841 16.5783 24.3237C16.8321 24.2995 17.0858 24.2875 17.3275 24.2512C17.5208 24.227 17.7142 24.2029 17.9196 24.1787Z" fill="#0E7490"/>
</svg>
