<svg width="16" height="16" viewBox="0 0 16 16" fill="none" xmlns="http://www.w3.org/2000/svg">
<path fill-rule="evenodd" clip-rule="evenodd" d="M11 2V12C11 13.6565 9.6565 15 8 15C6.3435 15 5 13.6565 5 12V3C5 1.8955 5.8955 1 7 1C8.1045 1 9 1.8955 9 3V12C9 12.552 8.552 13 8 13C7.448 13 7 12.552 7 12V4H6V12C6 13.1045 6.8955 14 8 14C9.1045 14 10 13.1045 10 12V3C10 1.3435 8.6565 0 7 0C5.3435 0 4 1.3435 4 3V12.5C4.2465 14.4725 5.9605 16 8 16C10.0395 16 11.7535 14.4725 12 12.5V2H11Z" fill="#888888"/>
<path fill-rule="evenodd" clip-rule="evenodd" d="M11 2V12C11 13.6565 9.6565 15 8 15C6.3435 15 5 13.6565 5 12V3C5 1.8955 5.8955 1 7 1C8.1045 1 9 1.8955 9 3V12C9 12.552 8.552 13 8 13C7.448 13 7 12.552 7 12V4H6V12C6 13.1045 6.8955 14 8 14C9.1045 14 10 13.1045 10 12V3C10 1.3435 8.6565 0 7 0C5.3435 0 4 1.3435 4 3V12.5C4.2465 14.4725 5.9605 16 8 16C10.0395 16 11.7535 14.4725 12 12.5V2H11Z" fill="black" fill-opacity="0.2"/>
<path fill-rule="evenodd" clip-rule="evenodd" d="M11 2V12C11 13.6565 9.6565 15 8 15C6.3435 15 5 13.6565 5 12V3C5 1.8955 5.8955 1 7 1C8.1045 1 9 1.8955 9 3V12C9 12.552 8.552 13 8 13C7.448 13 7 12.552 7 12V4H6V12C6 13.1045 6.8955 14 8 14C9.1045 14 10 13.1045 10 12V3C10 1.3435 8.6565 0 7 0C5.3435 0 4 1.3435 4 3V12.5C4.2465 14.4725 5.9605 16 8 16C10.0395 16 11.7535 14.4725 12 12.5V2H11Z" fill="black" fill-opacity="0.2"/>
</svg>
