<svg width="20" height="20" viewBox="0 0 20 20" fill="none" xmlns="http://www.w3.org/2000/svg">
<g clip-path="url(#clip0_373_3574)">
<path d="M16.8625 4.73833C17.2225 3.74249 16.2575 2.77749 15.2617 3.13833L3.09083 7.53999C2.09166 7.90166 1.97083 9.26499 2.88999 9.79749L6.77499 12.0467L10.2442 8.57749C10.4013 8.4257 10.6118 8.3417 10.8303 8.3436C11.0488 8.3455 11.2578 8.43314 11.4123 8.58765C11.5668 8.74215 11.6545 8.95116 11.6564 9.16966C11.6583 9.38816 11.5743 9.59866 11.4225 9.75583L7.95333 13.225L10.2033 17.11C10.735 18.0292 12.0983 17.9075 12.46 16.9092L16.8625 4.73833Z" fill="#0E7490"/>
</g>
<defs>
<clipPath id="clip0_373_3574">
<rect width="20" height="20" fill="white"/>
</clipPath>
</defs>
</svg>
