<svg width="40" height="40" viewBox="0 0 40 40" fill="none" xmlns="http://www.w3.org/2000/svg">
<circle cx="20" cy="20" r="20" fill="#EBF0F6"/>
<path fill-rule="evenodd" clip-rule="evenodd" d="M22.2975 12.1843C23.0292 11.4525 24.0217 11.0414 25.0566 11.0414C26.0915 11.0414 27.084 11.4525 27.8158 12.1843C28.5476 12.916 28.9587 13.9085 28.9587 14.9434C28.9587 15.9783 28.5476 16.9708 27.8158 17.7026L19.9108 25.6076C19.4591 26.0593 19.1941 26.3243 18.8975 26.5551C18.5491 26.8276 18.1725 27.0609 17.7725 27.2509C17.4341 27.4118 17.0775 27.5309 16.4725 27.7326L13.6958 28.6576L13.0275 28.8809C12.7616 28.9697 12.4764 28.9826 12.2036 28.9183C11.9309 28.854 11.6814 28.7149 11.4833 28.5168C11.2851 28.3186 11.1461 28.0692 11.0818 27.7964C11.0175 27.5237 11.0304 27.2384 11.1191 26.9726L12.2675 23.5284C12.4691 22.9226 12.5883 22.5659 12.7491 22.2268C12.94 21.8276 13.1725 21.4509 13.445 21.1018C13.675 20.8068 13.9408 20.5409 14.3925 20.0893L22.2975 12.1843ZM13.6666 27.3509L16.0341 26.5609C16.6933 26.3409 16.9733 26.2468 17.2341 26.1226C17.5508 25.9709 17.8508 25.7859 18.1283 25.5701C18.3558 25.3918 18.5658 25.1843 19.0575 24.6926L25.3658 18.3843C24.5009 18.0778 23.7158 17.5811 23.0683 16.9309C22.4186 16.2833 21.9226 15.4982 21.6166 14.6334L15.3083 20.9418C14.8166 21.4326 14.6083 21.6418 14.4308 21.8701C14.215 22.1474 14.0298 22.4472 13.8783 22.7643C13.7541 23.0251 13.66 23.3051 13.44 23.9643L12.65 26.3334L13.6666 27.3509ZM22.6291 13.6193C22.6583 13.7651 22.7058 13.9634 22.7866 14.1943C23.0303 14.8918 23.4292 15.525 23.9533 16.0459C24.474 16.5699 25.1068 16.9688 25.8041 17.2126C26.0358 17.2934 26.2341 17.3409 26.38 17.3701L26.9316 16.8184C27.426 16.3206 27.7029 15.647 27.7017 14.9454C27.7005 14.2437 27.4212 13.5711 26.9251 13.075C26.4289 12.5788 25.7564 12.2996 25.0547 12.2983C24.353 12.2971 23.6795 12.574 23.1816 13.0684L22.6291 13.6193Z" fill="#2A324B"/>
</svg>
