<svg width="25" height="26" viewBox="0 0 25 26" fill="none" xmlns="http://www.w3.org/2000/svg">
<path d="M2.08335 4.94792L3.41669 3.625L20.8334 21.0417L19.5104 22.375L16.3021 19.1667C15.1042 19.5625 13.8334 19.7708 12.5 19.7708C7.29169 19.7708 2.84377 16.5312 1.04169 11.9583C1.76044 10.125 2.90627 8.51042 4.3646 7.22917L2.08335 4.94792ZM12.5 8.83333C13.3288 8.83333 14.1237 9.16257 14.7097 9.74862C15.2958 10.3347 15.625 11.1295 15.625 11.9583C15.6255 12.3131 15.5657 12.6653 15.4479 13L11.4584 9.01042C11.793 8.89269 12.1453 8.83281 12.5 8.83333ZM12.5 4.14583C17.7084 4.14583 22.1563 7.38542 23.9584 11.9583C23.1082 14.1179 21.6635 15.9924 19.7917 17.3646L18.3125 15.875C19.753 14.8785 20.9148 13.5303 21.6875 11.9583C20.8454 10.2395 19.538 8.79143 17.9138 7.77865C16.2897 6.76588 14.414 6.22904 12.5 6.22917C11.3646 6.22917 10.25 6.41667 9.20835 6.75L7.60419 5.15625C9.10419 4.51042 10.7604 4.14583 12.5 4.14583ZM3.31252 11.9583C4.15464 13.6771 5.46207 15.1252 7.0862 16.138C8.71032 17.1508 10.586 17.6876 12.5 17.6875C13.2188 17.6875 13.9271 17.6146 14.5834 17.4688L12.2084 15.0833C11.4835 15.0056 10.8071 14.6822 10.2917 14.1667C9.77619 13.6512 9.45271 12.9748 9.37502 12.25L5.83335 8.69792C4.8021 9.58333 3.93752 10.6875 3.31252 11.9583Z" fill="#0E7490"/>
</svg>
