<svg width="19" height="20" viewBox="0 0 19 20" fill="none" xmlns="http://www.w3.org/2000/svg">
<path d="M1.58341 3.88042L2.59675 2.875L15.8334 16.1117L14.828 17.125L12.3897 14.6867C11.4792 14.9875 10.5134 15.1458 9.50008 15.1458C5.54175 15.1458 2.16133 12.6838 0.791748 9.20833C1.338 7.815 2.20883 6.58792 3.31716 5.61417L1.58341 3.88042ZM9.50008 6.83333C10.13 6.83333 10.7341 7.08356 11.1795 7.52895C11.6249 7.97435 11.8751 8.57844 11.8751 9.20833C11.8755 9.47795 11.83 9.74566 11.7405 10L8.70841 6.96792C8.96275 6.87845 9.23047 6.83293 9.50008 6.83333ZM9.50008 3.27083C13.4584 3.27083 16.8388 5.73292 18.2084 9.20833C17.5623 10.8496 16.4643 12.2742 15.0417 13.3171L13.9176 12.185C15.0124 11.4277 15.8953 10.403 16.4826 9.20833C15.8426 7.90204 14.8489 6.80148 13.6146 6.03177C12.3803 5.26207 10.9547 4.85407 9.50008 4.85417C8.63716 4.85417 7.79008 4.99667 6.99841 5.25L5.77925 4.03875C6.91925 3.54792 8.178 3.27083 9.50008 3.27083ZM2.51758 9.20833C3.1576 10.5146 4.15124 11.6152 5.38558 12.3849C6.61991 13.1546 8.04542 13.5626 9.50008 13.5625C10.0463 13.5625 10.5847 13.5071 11.0834 13.3963L9.27841 11.5833C8.72754 11.5243 8.21348 11.2784 7.82173 10.8867C7.42997 10.4949 7.18413 9.98087 7.12508 9.43L4.43341 6.73042C3.64966 7.40333 2.99258 8.2425 2.51758 9.20833Z" fill="#888888"/>
</svg>
