<svg width="145" height="145" viewBox="0 0 145 145" fill="none" xmlns="http://www.w3.org/2000/svg">
<path d="M61.1719 29.75V32H83.8281V29.75C83.8281 26.7663 82.6346 23.9048 80.5102 21.795C78.3858 19.6853 75.5044 18.5 72.5 18.5C69.4956 18.5 66.6142 19.6853 64.4898 21.795C62.3654 23.9048 61.1719 26.7663 61.1719 29.75ZM52.1094 32V29.75C52.1094 24.3794 54.2577 19.2287 58.0817 15.4311C61.9056 11.6335 67.0921 9.5 72.5 9.5C77.9079 9.5 83.0944 11.6335 86.9184 15.4311C90.7423 19.2287 92.8906 24.3794 92.8906 29.75V32H126.875C128.077 32 129.229 32.4741 130.079 33.318C130.929 34.1619 131.406 35.3065 131.406 36.5C131.406 37.6935 130.929 38.8381 130.079 39.682C129.229 40.5259 128.077 41 126.875 41H120.042L111.469 115.556C110.837 121.047 108.192 126.115 104.038 129.793C99.8848 133.471 94.5134 135.503 88.9484 135.5H56.0516C50.4866 135.503 45.1153 133.471 40.9618 129.793C36.8084 126.115 34.1634 121.047 33.5312 115.556L24.9581 41H18.125C16.9232 41 15.7707 40.5259 14.9209 39.682C14.0711 38.8381 13.5938 37.6935 13.5938 36.5C13.5938 35.3065 14.0711 34.1619 14.9209 33.318C15.7707 32.4741 16.9232 32 18.125 32H52.1094ZM63.4375 61.25C63.4375 60.0565 62.9601 58.9119 62.1103 58.068C61.2606 57.2241 60.108 56.75 58.9062 56.75C57.7045 56.75 56.5519 57.2241 55.7022 58.068C54.8524 58.9119 54.375 60.0565 54.375 61.25V106.25C54.375 107.443 54.8524 108.588 55.7022 109.432C56.5519 110.276 57.7045 110.75 58.9062 110.75C60.108 110.75 61.2606 110.276 62.1103 109.432C62.9601 108.588 63.4375 107.443 63.4375 106.25V61.25ZM86.0938 56.75C84.892 56.75 83.7394 57.2241 82.8897 58.068C82.0399 58.9119 81.5625 60.0565 81.5625 61.25V106.25C81.5625 107.443 82.0399 108.588 82.8897 109.432C83.7394 110.276 84.892 110.75 86.0938 110.75C87.2955 110.75 88.4481 110.276 89.2978 109.432C90.1476 108.588 90.625 107.443 90.625 106.25V61.25C90.625 60.0565 90.1476 58.9119 89.2978 58.068C88.4481 57.2241 87.2955 56.75 86.0938 56.75Z" fill="#EA5B5B"/>
</svg>
