<svg width="25" height="26" viewBox="0 0 25 26" fill="none" xmlns="http://www.w3.org/2000/svg">
<path d="M2.08333 17.1667C2.08333 14.2204 2.08333 12.7473 2.99862 11.832C3.91391 10.9167 5.38705 10.9167 8.33333 10.9167H16.6667C19.6129 10.9167 21.086 10.9167 22.0013 11.832C22.9167 12.7473 22.9167 14.2204 22.9167 17.1667C22.9167 20.1129 22.9167 21.586 22.0013 22.5014C21.086 23.4167 19.6129 23.4167 16.6667 23.4167H8.33333C5.38705 23.4167 3.91391 23.4167 2.99862 22.5014C2.08333 21.586 2.08333 20.1129 2.08333 17.1667Z" stroke="#0E7490" stroke-width="1.5"/>
<path d="M6.25 10.9167V8.83333C6.25 5.38155 9.04822 2.58333 12.5 2.58333C15.9518 2.58333 18.75 5.38155 18.75 8.83333V10.9167" stroke="#0E7490" stroke-width="1.5" stroke-linecap="round"/>
</svg>
