<svg width="76" height="22" viewBox="0 0 76 22" fill="none" xmlns="http://www.w3.org/2000/svg">
<path d="M0.69201 21.3121H20.5374L18.2844 19.0724H2.85652V2.839L18.3151 2.86863L20.5312 0.687915H0.69201V21.3121ZM22.208 22H0V0H22.2142L18.5992 3.55716L3.54853 3.52815V18.3845H18.571L22.208 22Z" fill="#0E7490"/>
<path d="M7.59777 14.5641H14.6951V7.50872H7.59777V14.5641ZM15.3872 15.252H6.90576V6.8208H15.3872V15.252Z" fill="#0E7490"/>
<path d="M41.4809 1.84277V5.40425H36.9954V19.8514H32.6949V5.40425H28.1821V1.84277H41.4809Z" fill="#0E7490"/>
<path d="M47.56 12.7136V19.8514H43.2856V1.84277H51.2495C52.718 1.84277 53.8971 2.0119 54.7862 2.35015C55.6754 2.68839 56.4118 3.31057 56.9955 4.21668C57.5797 5.12279 57.8722 6.13013 57.8722 7.23869C57.8722 9.40243 56.8235 10.9545 54.7266 11.8952L58.0709 19.8514H53.3855L50.5988 12.7136H47.56ZM47.56 5.04872V9.63976H50.1604C51.0098 9.63976 51.627 9.5805 52.012 9.46199C52.397 9.34287 52.7397 9.07869 53.0402 8.66946C53.3414 8.26053 53.4923 7.79236 53.4923 7.26462C53.4923 6.76342 53.3414 6.31499 53.0402 5.91903C52.7397 5.52338 52.4122 5.27926 52.0579 5.18698C51.7043 5.09501 51.0412 5.04872 50.0685 5.04872H47.56Z" fill="#0E7490"/>
<path d="M61.1353 1.84277H66.6701C68.9259 1.84277 70.607 2.15263 71.7132 2.77234C72.819 3.39205 73.81 4.37284 74.6861 5.71411C75.5619 7.05568 76 8.75093 76 10.8002C76 13.3778 75.2344 15.5307 73.7038 17.259C72.173 18.9873 70.0628 19.8514 67.373 19.8514H61.1353V1.84277ZM65.3028 5.15365V16.4603H67.0551C68.603 16.4603 69.7529 15.8869 70.5049 14.7394C71.2574 13.5913 71.6337 12.2433 71.6337 10.6952C71.6337 9.60488 71.4189 8.596 70.9892 7.66829C70.5601 6.73996 70.0271 6.08908 69.3897 5.71534C68.753 5.34099 67.988 5.15365 67.0948 5.15365H65.3028Z" fill="#0E7490"/>
</svg>
