<svg width="181" height="53" viewBox="0 0 181 53" fill="none" xmlns="http://www.w3.org/2000/svg">
<path d="M1.64808 51.3428H48.9114L43.5458 45.9472H6.80303V6.83941L43.619 6.91078L48.8966 1.65725H1.64808V51.3428ZM52.89 53H0V0H52.9048L44.2955 8.56952L8.45111 8.49963V44.29H44.2282L52.89 53Z" fill="#0E7490"/>
<path d="M18.0948 35.0863H34.9978V18.0892H18.0948V35.0863ZM36.6459 36.7435H16.4468V16.432H36.6459V36.7435Z" fill="#0E7490"/>
<path d="M98.7901 4.43996V13.0199H88.1075V47.8243H77.8656V13.0199H67.118V4.43996H98.7901Z" fill="#0E7490"/>
<path d="M113.268 30.6288V47.8243H103.088V4.43996H122.055C125.552 4.43996 128.36 4.84739 130.478 5.66226C132.595 6.47713 134.349 7.97602 135.739 10.1589C137.131 12.3418 137.827 14.7686 137.827 17.4392C137.827 22.6519 135.329 26.3909 130.336 28.6571L138.3 47.8243H127.142L120.505 30.6288H113.268ZM113.268 12.1634V23.2236H119.461C121.484 23.2236 122.954 23.0808 123.871 22.7953C124.787 22.5084 125.604 21.8719 126.319 20.8861C127.037 19.9009 127.396 18.773 127.396 17.5017C127.396 16.2942 127.037 15.2139 126.319 14.26C125.604 13.3069 124.824 12.7188 123.98 12.4965C123.138 12.2749 121.558 12.1634 119.242 12.1634H113.268Z" fill="#0E7490"/>
<path d="M145.599 4.43996H158.78C164.153 4.43996 168.156 5.18643 170.791 6.67936C173.424 8.1723 175.784 10.5351 177.871 13.7664C179.957 16.9983 181 21.0823 181 26.0191C181 32.2288 179.177 37.4154 175.532 41.579C171.886 45.7426 166.86 47.8243 160.454 47.8243H145.599V4.43996ZM155.524 12.4162V39.6548H159.697C163.384 39.6548 166.122 38.2734 167.913 35.5091C169.705 32.7433 170.601 29.4957 170.601 25.7664C170.601 23.1396 170.09 20.7091 169.066 18.4742C168.045 16.2377 166.775 14.6697 165.257 13.7693C163.741 12.8675 161.919 12.4162 159.792 12.4162H155.524Z" fill="#0E7490"/>
</svg>
