<svg width="22" height="22" viewBox="0 0 22 22" fill="none" xmlns="http://www.w3.org/2000/svg">
<path d="M18.6358 3.36412C18.4624 3.19194 18.2449 3.0709 18.0072 3.01429C17.7695 2.95769 17.5207 2.96772 17.2883 3.04328L3.87751 7.51662C3.62879 7.59543 3.40901 7.74618 3.24592 7.94983C3.08283 8.15348 2.98374 8.40089 2.96118 8.66082C2.93862 8.92075 2.9936 9.18153 3.11916 9.41024C3.24473 9.63894 3.43526 9.8253 3.66668 9.94579L9.23085 12.6958L11.9808 18.2783C12.0914 18.4968 12.2605 18.6803 12.4693 18.8081C12.6782 18.936 12.9185 19.0033 13.1633 19.0025H13.255C13.5173 18.9831 13.7676 18.8854 13.9736 18.7219C14.1796 18.5584 14.3316 18.3368 14.41 18.0858L18.9475 4.71162C19.0285 4.48056 19.0423 4.23123 18.9871 3.99267C18.9319 3.75411 18.8101 3.53614 18.6358 3.36412ZM4.44585 8.78162L16.1517 4.87662L9.65251 11.3758L4.44585 8.78162ZM13.2275 17.5541L10.6242 12.3475L17.1233 5.84828L13.2275 17.5541Z" fill="#888888"/>
</svg>
