<svg width="22" height="22" viewBox="0 0 22 22" fill="none" xmlns="http://www.w3.org/2000/svg">
<path d="M18.6358 3.364C18.4624 3.19182 18.2449 3.07077 18.0072 3.01417C17.7695 2.95757 17.5207 2.9676 17.2883 3.04316L3.87751 7.5165C3.62879 7.59531 3.40901 7.74606 3.24592 7.94971C3.08283 8.15336 2.98374 8.40077 2.96118 8.6607C2.93862 8.92063 2.9936 9.18141 3.11916 9.41012C3.24473 9.63882 3.43526 9.82518 3.66668 9.94566L9.23085 12.6957L11.9808 18.2782C12.0914 18.4967 12.2605 18.6801 12.4693 18.808C12.6782 18.9359 12.9185 19.0032 13.1633 19.0023H13.255C13.5173 18.983 13.7676 18.8853 13.9736 18.7218C14.1796 18.5583 14.3316 18.3367 14.41 18.0857L18.9475 4.7115C19.0285 4.48043 19.0423 4.23111 18.9871 3.99255C18.9319 3.75399 18.8101 3.53602 18.6358 3.364ZM4.44585 8.7815L16.1517 4.8765L9.65251 11.3757L4.44585 8.7815ZM13.2275 17.554L10.6242 12.3473L17.1233 5.84816L13.2275 17.554Z" fill="#FBFAFA"/>
</svg>
