<svg width="20" height="21" viewBox="0 0 20 21" fill="none" xmlns="http://www.w3.org/2000/svg">
<path fill-rule="evenodd" clip-rule="evenodd" d="M12.2975 2.68427C13.0292 1.95249 14.0217 1.54138 15.0566 1.54138C16.0915 1.54138 17.084 1.95249 17.8158 2.68427C18.5476 3.41604 18.9587 4.40854 18.9587 5.44343C18.9587 6.47832 18.5476 7.47082 17.8158 8.2026L9.91079 16.1076C9.45912 16.5593 9.19412 16.8243 8.89745 17.0551C8.54912 17.3276 8.17245 17.5609 7.77245 17.7509C7.43412 17.9118 7.07745 18.0309 6.47245 18.2326L3.69579 19.1576L3.02745 19.3809C2.76164 19.4697 2.47637 19.4826 2.20362 19.4183C1.93087 19.354 1.68144 19.2149 1.48328 19.0168C1.28513 18.8186 1.1461 18.5692 1.08178 18.2964C1.01745 18.0237 1.03038 17.7384 1.11912 17.4726L2.26745 14.0284C2.46912 13.4226 2.58829 13.0659 2.74912 12.7268C2.93995 12.3276 3.17245 11.9509 3.44495 11.6018C3.67495 11.3068 3.94079 11.0409 4.39245 10.5893L12.2975 2.68427ZM3.66662 17.8509L6.03412 17.0609C6.69329 16.8409 6.97329 16.7468 7.23412 16.6226C7.55079 16.4709 7.85079 16.2859 8.12829 16.0701C8.35579 15.8918 8.56579 15.6843 9.05745 15.1926L15.3658 8.88427C14.5009 8.57778 13.7158 8.08114 13.0683 7.43093C12.4186 6.78333 11.9226 5.99821 11.6166 5.13343L5.30829 11.4418C4.81662 11.9326 4.60829 12.1418 4.43079 12.3701C4.21499 12.6474 4.02975 12.9472 3.87829 13.2643C3.75412 13.5251 3.65995 13.8051 3.43995 14.4643L2.64995 16.8334L3.66662 17.8509ZM12.6291 4.11927C12.6583 4.2651 12.7058 4.46343 12.7866 4.69427C13.0303 5.39184 13.4292 6.02498 13.9533 6.54593C14.474 7.06987 15.1068 7.46878 15.8041 7.7126C16.0358 7.79343 16.2341 7.84093 16.38 7.8701L16.9316 7.31843C17.426 6.82055 17.7029 6.14701 17.7017 5.44535C17.7005 4.7437 17.4212 4.07113 16.9251 3.57498C16.4289 3.07884 15.7564 2.79956 15.0547 2.79833C14.353 2.7971 13.6795 3.07402 13.1816 3.56843L12.6291 4.11927Z" fill="#2A324B"/>
</svg>
