<svg width="145" height="145" viewBox="0 0 145 145" fill="none" xmlns="http://www.w3.org/2000/svg">
<path d="M48.3333 114.792C43.5263 114.792 38.9161 112.882 35.517 109.483C32.1179 106.084 30.2083 101.474 30.2083 96.6667V48.3333C30.2083 43.5263 32.1179 38.9161 35.517 35.517C38.9161 32.1179 43.5263 30.2083 48.3333 30.2083C49.9357 30.2083 51.4724 29.5718 52.6054 28.4388C53.7385 27.3057 54.375 25.769 54.375 24.1667C54.375 22.5643 53.7385 21.0276 52.6054 19.8946C51.4724 18.7615 49.9357 18.125 48.3333 18.125C40.3216 18.125 32.638 21.3077 26.9728 26.9728C21.3077 32.638 18.125 40.3216 18.125 48.3333V96.6667C18.125 104.678 21.3077 112.362 26.9728 118.027C32.638 123.692 40.3216 126.875 48.3333 126.875C49.9357 126.875 51.4724 126.238 52.6054 125.105C53.7385 123.972 54.375 122.436 54.375 120.833C54.375 119.231 53.7385 117.694 52.6054 116.561C51.4724 115.428 49.9357 114.792 48.3333 114.792ZM94.9146 94.9146C95.4809 94.3529 95.9303 93.6847 96.237 92.9485C96.5438 92.2122 96.7017 91.4226 96.7017 90.625C96.7017 89.8274 96.5438 89.0377 96.237 88.3015C95.9303 87.5653 95.4809 86.8971 94.9146 86.3354L81.0187 72.5L94.9146 58.6646C96.0522 57.5269 96.6914 55.9839 96.6914 54.375C96.6914 52.7661 96.0522 51.2231 94.9146 50.0854C93.7769 48.9477 92.2339 48.3086 90.625 48.3086C89.0161 48.3086 87.4731 48.9477 86.3354 50.0854L72.5 63.9813L58.6646 50.0854C57.5269 48.9477 55.9839 48.3086 54.375 48.3086C52.7661 48.3086 51.2231 48.9477 50.0854 50.0854C48.9477 51.2231 48.3086 52.7661 48.3086 54.375C48.3086 55.9839 48.9477 57.5269 50.0854 58.6646L63.9813 72.5L50.0854 86.3354C49.5191 86.8971 49.0697 87.5653 48.7629 88.3015C48.4562 89.0377 48.2983 89.8274 48.2983 90.625C48.2983 91.4226 48.4562 92.2122 48.7629 92.9485C49.0697 93.6847 49.5191 94.3529 50.0854 94.9146C50.6471 95.4809 51.3153 95.9303 52.0515 96.237C52.7877 96.5438 53.5774 96.7017 54.375 96.7017C55.1726 96.7017 55.9622 96.5438 56.6985 96.237C57.4347 95.9303 58.1029 95.4809 58.6646 94.9146L72.5 81.0187L86.3354 94.9146C86.8971 95.4809 87.5653 95.9303 88.3015 96.237C89.0377 96.5438 89.8274 96.7017 90.625 96.7017C91.4226 96.7017 92.2122 96.5438 92.9485 96.237C93.6847 95.9303 94.3529 95.4809 94.9146 94.9146ZM96.6667 18.125C95.0643 18.125 93.5276 18.7615 92.3946 19.8946C91.2615 21.0276 90.625 22.5643 90.625 24.1667C90.625 25.769 91.2615 27.3057 92.3946 28.4388C93.5276 29.5718 95.0643 30.2083 96.6667 30.2083C101.474 30.2083 106.084 32.1179 109.483 35.517C112.882 38.9161 114.792 43.5263 114.792 48.3333V96.6667C114.792 101.474 112.882 106.084 109.483 109.483C106.084 112.882 101.474 114.792 96.6667 114.792C95.0643 114.792 93.5276 115.428 92.3946 116.561C91.2615 117.694 90.625 119.231 90.625 120.833C90.625 122.436 91.2615 123.972 92.3946 125.105C93.5276 126.238 95.0643 126.875 96.6667 126.875C104.678 126.875 112.362 123.692 118.027 118.027C123.692 112.362 126.875 104.678 126.875 96.6667V48.3333C126.875 40.3216 123.692 32.638 118.027 26.9728C112.362 21.3077 104.678 18.125 96.6667 18.125Z" fill="#EA5B5B"/>
</svg>
