<svg width="29" height="30" viewBox="0 0 29 30" fill="none" xmlns="http://www.w3.org/2000/svg">
<path d="M22.5127 18.5246L22.5153 18.529C22.8271 19.0407 22.8803 19.6371 22.6752 20.1814C22.4643 20.741 22.0354 21.1556 21.4863 21.3361L21.4863 21.336L21.4807 21.3379C19.2427 22.0877 16.8853 22.4582 14.5243 22.4582C12.1633 22.4582 9.80751 22.0878 7.57217 21.3273L7.57016 21.3266C6.92189 21.1076 6.491 20.6781 6.3186 20.1968L6.31863 20.1968L6.31576 20.1889C6.12958 19.6825 6.17913 19.1032 6.52444 18.5235L7.74327 16.5082L7.74738 16.5014L7.75137 16.4945C7.93959 16.1719 8.08837 15.7591 8.18939 15.3876C8.29021 15.0167 8.37093 14.586 8.37093 14.2144V11.1573C8.37093 8.75208 9.7704 6.66 11.8038 5.64851L12.0805 5.5109L12.2313 5.2412C12.6853 4.42909 13.5382 3.9165 14.488 3.9165C15.4584 3.9165 16.2849 4.41273 16.7349 5.20898L16.8901 5.48351L17.1747 5.61936C19.2465 6.6084 20.6776 8.7194 20.6776 11.1573V14.2144C20.6776 14.586 20.7583 15.0166 20.8588 15.388C20.96 15.7616 21.1075 16.1727 21.2912 16.4964L21.2976 16.5076L21.3043 16.5188L22.5127 18.5246Z" stroke="#0891B2" stroke-width="2"/>
<path d="M14.5 26.0832C14.1696 26.0832 13.8421 26.0188 13.5389 25.8985C13.8656 25.9126 14.1945 25.9203 14.5242 25.9203C14.8388 25.9203 15.1526 25.9131 15.4644 25.8998C15.1652 26.0182 14.8397 26.0832 14.5 26.0832Z" stroke="#0891B2" stroke-width="2"/>
</svg>
