<svg width="29" height="29" viewBox="0 0 29 29" fill="none" xmlns="http://www.w3.org/2000/svg">
<path d="M22.9409 17.7668L22.9422 17.769C23.3337 18.4115 23.4026 19.1689 23.143 19.8579C22.8804 20.5545 22.3398 21.0821 21.6423 21.3112L21.6395 21.3122C19.3484 22.0798 16.9372 22.4584 14.5242 22.4584C12.1112 22.4584 9.70079 22.0798 7.41104 21.3008L7.41004 21.3005C6.63882 21.0399 6.079 20.511 5.8478 19.8656L5.84781 19.8656L5.84637 19.8617C5.60226 19.1977 5.68137 18.4609 6.0957 17.7662C6.09593 17.7658 6.09617 17.7655 6.0964 17.7651L7.31534 15.7496L7.3154 15.7496L7.31939 15.7428C7.47694 15.4727 7.61174 15.1062 7.70681 14.7566C7.80178 14.4073 7.87084 14.0242 7.87084 13.7146V10.6575C7.87084 8.05322 9.3862 5.79281 11.581 4.70103L11.7193 4.63222L11.7947 4.49737C12.336 3.52944 13.3545 2.91669 14.4879 2.91669C15.6377 2.91669 16.6309 3.50917 17.1701 4.46313L17.2477 4.6004L17.39 4.66832C19.6282 5.7368 21.1775 8.01876 21.1775 10.6575V13.7146C21.1775 14.0242 21.2466 14.4072 21.3414 14.7575C21.4365 15.109 21.5707 15.4761 21.726 15.7497L21.7258 15.7498L21.7325 15.7609L22.9409 17.7668Z" stroke="#0E7490"/>
<path d="M11.9628 24.779C12.1036 24.7951 12.2471 24.8099 12.3911 24.822C13.0914 24.8834 13.8067 24.9204 14.5242 24.9204C15.2302 24.9204 15.934 24.8833 16.6228 24.8218L16.6228 24.8218L16.6257 24.8215C16.6919 24.8152 16.765 24.8094 16.842 24.8032C16.9047 24.7982 16.9699 24.7929 17.0359 24.7871C16.4645 25.5731 15.5396 26.0834 14.5 26.0834C13.6765 26.0834 12.8653 25.7486 12.2981 25.1608L12.2894 25.1517L12.2803 25.1432C12.1648 25.0349 12.0584 24.912 11.9628 24.779Z" stroke="#0E7490"/>
</svg>
